<svg width="93" height="34" viewBox="0 0 93 34" fill="none" xmlns="http://www.w3.org/2000/svg">
<path d="M14.8302 19.0706C15.5543 19.2598 17.137 19.6732 17.3886 18.6732C17.6464 17.6507 16.1115 17.3101 15.3625 17.1439C15.2788 17.1253 15.205 17.1089 15.1445 17.094L14.6571 19.0262C14.7068 19.0384 14.765 19.0536 14.8302 19.0706Z" fill="white"/>
<path d="M15.513 16.2472C16.1168 16.4065 17.4337 16.7541 17.6631 15.8452C17.8973 14.9156 16.6174 14.6353 15.9923 14.4985C15.922 14.4831 15.8599 14.4695 15.8093 14.457L15.3674 16.2095C15.4092 16.2198 15.4581 16.2327 15.513 16.2472Z" fill="white"/>
<path fill-rule="evenodd" clip-rule="evenodd" d="M13.8924 24.7619C18.2262 25.8306 22.615 23.2224 23.6953 18.9367C24.7757 14.6508 22.1388 10.3093 17.8053 9.24086C13.4728 8.17238 9.08402 10.7808 8.00419 15.067C6.92335 19.3525 9.56049 23.6934 13.8924 24.7619ZM17.6373 13.8425C18.7578 14.2243 19.5773 14.7965 19.4163 15.861C19.2998 16.6402 18.863 17.0175 18.2831 17.1497C19.0793 17.5597 19.4845 18.1885 19.0986 19.2784C18.6196 20.6322 17.4816 20.7464 15.9683 20.4632L15.601 21.9189L14.7135 21.7001L15.076 20.2639C14.846 20.2074 14.6109 20.1474 14.3687 20.0824L14.005 21.5254L13.1185 21.3067L13.4858 19.8482C13.403 19.8272 13.3196 19.8057 13.2356 19.784C13.1095 19.7515 12.9821 19.7186 12.8531 19.6867L11.6982 19.4019L12.1388 18.3972C12.1388 18.3972 12.7927 18.5692 12.7839 18.5564C13.0351 18.6179 13.1466 18.456 13.1906 18.348L13.7709 16.0467C13.7927 16.0519 13.814 16.0572 13.8345 16.0623C13.8448 16.0648 13.8549 16.0673 13.8647 16.0697C13.8293 16.0557 13.7972 16.0467 13.7725 16.0405L14.1865 14.3978C14.1974 14.2113 14.1324 13.976 13.773 13.8873C13.7869 13.878 13.1284 13.7288 13.1284 13.7288L13.3645 12.7913L14.5884 13.0935L14.5874 13.098C14.7714 13.1433 14.961 13.1863 15.1541 13.2298L15.5178 11.7883L16.4048 12.0071L16.0484 13.4203C16.2865 13.474 16.5261 13.5283 16.7594 13.5858L17.1133 12.1818L18.0008 12.4005L17.6373 13.8425Z" fill="white"/>
<path d="M31.4658 13.841C32.1217 13.841 32.6884 13.9572 33.1647 14.1855C33.6432 14.416 34.038 14.7265 34.3547 15.117C34.6671 15.5095 34.8997 15.9682 35.0498 16.494C35.1989 17.0212 35.2738 17.5879 35.2738 18.1947C35.2738 19.1267 35.1011 20.0072 34.7526 20.8371C34.404 21.6684 33.9311 22.3894 33.3295 23.0044C32.7284 23.6186 32.0186 24.1028 31.2001 24.4606C30.3829 24.8186 29.4945 24.9976 28.5405 24.9976C28.4172 24.9976 28.2003 24.9941 27.8939 24.9878C27.5876 24.9816 27.2355 24.9503 26.8411 24.8976C26.4443 24.8428 26.0247 24.7618 25.5816 24.6533C25.1387 24.5468 24.7181 24.3976 24.322 24.2081L27.8638 9.48932L31.0361 9.00307L29.7679 14.2262C30.0394 14.1052 30.3129 14.0115 30.5859 13.9432C30.8591 13.876 31.1524 13.841 31.4658 13.841ZM28.8049 22.5086C29.2826 22.5086 29.7328 22.3924 30.1557 22.1641C30.5798 21.9356 30.9459 21.6271 31.2525 21.2429C31.5591 20.8569 31.8017 20.4221 31.9787 19.9364C32.1556 19.4507 32.2451 18.9439 32.2451 18.4167C32.2451 17.7689 32.1356 17.2637 31.9175 16.8985C31.6994 16.5347 31.2957 16.3517 30.7095 16.3517C30.5174 16.3517 30.2699 16.388 29.9631 16.4527C29.6552 16.5215 29.3797 16.6642 29.1327 16.879L27.7824 22.4259C27.8638 22.4401 27.9359 22.4536 27.9973 22.4664C28.0575 22.4801 28.1239 22.4899 28.1902 22.4966C28.2602 22.5044 28.3403 22.5084 28.4371 22.5084C28.5339 22.5084 28.655 22.5086 28.8049 22.5086Z" fill="white"/>
<path d="M38.5636 24.7161H35.5336L38.0924 14.067H41.1431L38.5636 24.7161ZM40.038 12.7695C39.6151 12.7695 39.2317 12.645 38.8914 12.3955C38.5484 12.1475 38.3786 11.7658 38.3786 11.2513C38.3786 10.9683 38.4367 10.7028 38.552 10.4523C38.669 10.2023 38.8219 9.98707 39.0135 9.80408C39.2049 9.62258 39.4265 9.47758 39.6783 9.36833C39.9316 9.26083 40.201 9.20709 40.4882 9.20709C40.9108 9.20709 41.2922 9.33158 41.6337 9.58108C41.9739 9.83183 42.1451 10.2136 42.1451 10.7253C42.1451 11.0093 42.0872 11.2758 41.9709 11.5258C41.8554 11.7758 41.7025 11.991 41.5109 12.174C41.321 12.3558 41.0973 12.5003 40.8461 12.6085C40.5926 12.7178 40.3241 12.7695 40.038 12.7695Z" fill="white"/>
<path d="M43.7985 11.4134L46.972 10.9272L46.1927 14.0661H49.5915L48.9777 16.5356H45.5995L44.6996 20.2605C44.6167 20.571 44.5697 20.861 44.5566 21.1305C44.5417 21.4013 44.5763 21.6338 44.6582 21.8295C44.7396 22.0258 44.8859 22.177 45.0983 22.284C45.3096 22.3928 45.6121 22.4475 46.009 22.4475C46.3358 22.4475 46.6543 22.4168 46.9622 22.3558C47.2683 22.2958 47.5784 22.2123 47.8924 22.103L48.1183 24.412C47.7089 24.5605 47.2655 24.6882 46.7878 24.7957C46.3093 24.9047 45.7428 24.9572 45.0881 24.9572C44.1468 24.9572 43.4171 24.819 42.8971 24.5437C42.3779 24.2665 42.0109 23.8877 41.7913 23.4082C41.5746 22.9305 41.4778 22.3798 41.5049 21.7593C41.5329 21.1373 41.6277 20.4835 41.7913 19.7951L43.7985 11.4134Z" fill="white"/>
<path d="M49.4579 20.4633C49.4579 19.5461 49.6081 18.6811 49.9081 17.8713C50.2076 17.0609 50.6391 16.3521 51.199 15.7439C51.7569 15.1386 52.4366 14.6591 53.2366 14.3071C54.0328 13.9572 54.9243 13.7807 55.9068 13.7807C56.5218 13.7807 57.0711 13.8382 57.5544 13.9534C58.0397 14.0697 58.4787 14.2199 58.8758 14.4084L57.8309 16.7584C57.5579 16.6489 57.2745 16.5524 56.9816 16.4649C56.6884 16.3756 56.3305 16.3326 55.9071 16.3326C54.8957 16.3326 54.0962 16.6774 53.5012 17.3646C52.9085 18.0523 52.61 18.9781 52.61 20.1393C52.61 20.8275 52.7601 21.384 53.0614 21.8098C53.3612 22.2355 53.915 22.4473 54.7191 22.4473C55.1159 22.4473 55.4988 22.4063 55.8656 22.3263C56.2352 22.2453 56.5615 22.1433 56.8489 22.0228L57.0751 24.4317C56.6919 24.5787 56.2693 24.7115 55.8057 24.8277C55.3411 24.94 54.7881 24.9982 54.1468 24.9982C53.3003 24.9982 52.5837 24.8757 51.9975 24.6345C51.4111 24.3895 50.9265 24.0642 50.5448 23.6523C50.1611 23.2393 49.8856 22.757 49.7152 22.2035C49.5449 21.6505 49.4579 21.0695 49.4579 20.4633Z" fill="white"/>
<path d="M62.9178 24.9982C62.1947 24.9982 61.5665 24.8892 61.0337 24.6735C60.5024 24.4577 60.0623 24.155 59.7142 23.7625C59.3657 23.372 59.1048 22.9093 58.9261 22.376C58.7474 21.843 58.6615 21.2528 58.6615 20.6061C58.6615 19.7948 58.7932 18.9838 59.0593 18.1751C59.3242 17.3646 59.7173 16.6364 60.2375 15.9891C60.7536 15.3409 61.3904 14.8109 62.1401 14.3976C62.889 13.9872 63.7505 13.7807 64.7181 13.7807C65.4281 13.7807 66.0529 13.8899 66.5931 14.1057C67.1307 14.3209 67.5736 14.6261 67.9237 15.0166C68.27 15.4091 68.5331 15.8699 68.71 16.4039C68.8882 16.9359 68.9762 17.5276 68.9762 18.1748C68.9762 18.9836 68.8463 19.7946 68.5885 20.6058C68.3304 21.413 67.9474 22.143 67.4419 22.7918C66.9374 23.439 66.3065 23.9688 65.5487 24.3802C64.7919 24.7917 63.9142 24.9982 62.9178 24.9982ZM64.4322 16.3329C63.983 16.3329 63.5859 16.4619 63.2459 16.7166C62.9047 16.9744 62.618 17.2984 62.387 17.6891C62.1535 18.0816 61.9803 18.5096 61.8633 18.9748C61.7473 19.4411 61.6904 19.8818 61.6904 20.3006C61.6904 20.9763 61.8006 21.5025 62.0172 21.8813C62.2369 22.258 62.6315 22.4475 63.205 22.4475C63.6557 22.4475 64.0507 22.3195 64.3927 22.062C64.732 21.8063 65.0189 21.482 65.2517 21.0905C65.4837 20.7 65.6584 20.2708 65.7754 19.8048C65.8899 19.3401 65.9483 18.8968 65.9483 18.4788C65.9483 17.8048 65.8386 17.2774 65.6199 16.8991C65.4015 16.5224 65.0052 16.3329 64.4322 16.3329Z" fill="white"/>
<path d="M72.2779 24.7161H69.2454L71.8042 14.067H74.8564L72.2779 24.7161ZM73.75 12.7695C73.3274 12.7695 72.9442 12.645 72.6045 12.3955C72.2632 12.1475 72.0918 11.7658 72.0918 11.2513C72.0918 10.9683 72.1507 10.7028 72.2662 10.4523C72.3818 10.2023 72.5357 9.98707 72.7273 9.80408C72.9176 9.62258 73.1413 9.47758 73.3926 9.36833C73.6443 9.26083 73.9138 9.20709 74.1999 9.20709C74.6236 9.20709 75.0063 9.33158 75.347 9.58108C75.688 9.83183 75.8601 10.2136 75.8601 10.7253C75.8601 11.0093 75.7989 11.2758 75.6844 11.5258C75.5699 11.7758 75.416 11.991 75.2252 12.174C75.0331 12.3558 74.8121 12.5003 74.5604 12.6085C74.3066 12.7178 74.0377 12.7695 73.75 12.7695Z" fill="white"/>
<path d="M77.04 14.5511C77.27 14.4846 77.5268 14.4046 77.8061 14.3176C78.0864 14.2306 78.3996 14.1496 78.7494 14.0766C79.0955 14.0014 79.486 13.9404 79.9155 13.8931C80.3449 13.8449 80.8343 13.8214 81.378 13.8214C82.976 13.8214 84.0776 14.2816 84.6857 15.1994C85.2934 16.1171 85.3985 17.3731 85.0042 18.9651L83.6104 24.715H80.5605L81.9113 19.0861C81.9937 18.7346 82.0584 18.3948 82.1062 18.0628C82.1545 17.7338 82.1517 17.4438 82.0953 17.1928C82.0415 16.9448 81.9146 16.7418 81.7177 16.5846C81.5178 16.4298 81.2157 16.3521 80.806 16.3521C80.4109 16.3521 80.009 16.3941 79.5987 16.4751L77.6127 24.7147H74.5616L77.04 14.5511Z" fill="white"/>
</svg>
