<svg width="73" height="24" viewBox="0 0 73 24" fill="none" xmlns="http://www.w3.org/2000/svg">
<path fill-rule="evenodd" clip-rule="evenodd" d="M5.93088 19.2752C9.994 20.2783 14.1087 17.8314 15.1212 13.8142C16.1337 9.7961 13.6624 5.72641 9.59931 4.72423C5.53806 3.72298 1.42338 6.16891 0.410877 10.187C-0.601623 14.2042 1.86963 18.2739 5.93088 19.2752ZM9.44181 9.0386C10.4918 9.39673 11.2606 9.93298 11.1106 10.9314C11.0009 11.6617 10.5912 12.0152 10.0474 12.1389C10.7937 12.5233 11.1734 13.113 10.8115 14.1349C10.3624 15.4042 9.29556 15.5111 7.87713 15.2458L7.53306 16.6099L6.70056 16.4055L7.04088 15.0583C6.82525 15.0058 6.60494 14.9495 6.37806 14.8886L6.03681 16.2414L5.20525 16.0361L5.55025 14.6692L5.31588 14.6092C5.19634 14.578 5.07665 14.5474 4.95681 14.5174L3.874 14.2502L4.2865 13.3089C4.2865 13.3089 4.90056 13.4702 4.89213 13.458C5.1265 13.5152 5.2315 13.3642 5.27275 13.262L5.8165 11.1058C5.83713 11.1095 5.85775 11.1152 5.8765 11.1199L5.90463 11.1264C5.8765 11.1155 5.84769 11.1064 5.81838 11.0992L6.2065 9.55891C6.21681 9.38454 6.15588 9.16423 5.81931 9.08079C5.83244 9.07141 5.21463 8.93173 5.21463 8.93173L5.43588 8.05329L6.58338 8.33641V8.3411C6.75494 8.38329 6.93306 8.4236 7.114 8.46391L7.45525 7.11298L8.28681 7.31829L7.95213 8.64298C8.17525 8.6936 8.40025 8.74423 8.61869 8.79766L8.95056 7.48141L9.78306 7.68766L9.44181 9.0386ZM6.81025 13.9408C7.489 14.1189 8.97306 14.5061 9.20838 13.5686C9.45025 12.6095 8.01119 12.2908 7.309 12.1342C7.23119 12.1174 7.16181 12.1014 7.10463 12.0874L6.64806 13.8995L6.81025 13.9408ZM7.45056 11.2942C8.01681 11.4442 9.25056 11.7695 9.46619 10.9174C9.68556 10.0455 8.48556 9.78298 7.90056 9.65454L7.72806 9.6161L7.31369 11.2586L7.45056 11.2942Z" fill="#DC8F39"/>
<path d="M22.4065 9.03579C23.0215 9.03579 23.5531 9.14454 23.9993 9.35829C24.4474 9.57391 24.8178 9.86548 25.1149 10.232C25.4074 10.5995 25.6259 11.0299 25.7665 11.523C25.9071 12.017 25.9765 12.5486 25.9765 13.1167C25.9765 13.9914 25.8143 14.8164 25.4881 15.5945C25.1768 16.3505 24.724 17.04 24.154 17.6261C23.5833 18.2066 22.905 18.6705 22.1571 18.992C21.37 19.3318 20.5206 19.5033 19.6634 19.4955C19.5481 19.4955 19.3446 19.4917 19.0578 19.4861C18.7274 19.4762 18.3978 19.448 18.0706 19.4017C17.6731 19.3455 17.2789 19.2688 16.8893 19.172C16.4823 19.0748 16.0867 18.935 15.709 18.7548L19.0296 4.95579L22.0034 4.50016L20.8146 9.39673C21.0696 9.28423 21.3256 9.19516 21.5815 9.13141C21.8374 9.0686 22.1131 9.03579 22.4065 9.03579ZM19.9128 17.162C20.3599 17.162 20.7818 17.0524 21.1784 16.8386C21.5759 16.6239 21.919 16.3352 22.2068 15.9752C22.4937 15.6133 22.7215 15.2064 22.8874 14.7498C23.0534 14.2952 23.1368 13.8198 23.1368 13.3249C23.1368 12.7183 23.0337 12.2449 22.8303 11.9017C22.6259 11.5614 22.2471 11.3899 21.6978 11.3899C21.5178 11.3899 21.2853 11.4236 20.9974 11.4836C20.7084 11.5491 20.4407 11.6868 20.2193 11.8839L18.9537 17.0842C19.0296 17.0974 19.0971 17.1095 19.1543 17.1217C19.2902 17.1485 19.4284 17.1616 19.5668 17.1611H19.9118L19.9128 17.162ZM29.0599 19.2339H26.2193L28.6184 9.25048H31.4778L29.0599 19.2339ZM30.4428 8.0336C30.0462 8.0336 29.6862 7.91735 29.3674 7.68298C29.0459 7.45048 28.8865 7.09235 28.8865 6.61048C28.8865 6.34516 28.9409 6.09673 29.0496 5.86141C29.2607 5.40163 29.6378 5.03862 30.1053 4.84516C30.3424 4.74485 30.5956 4.69423 30.8646 4.69423C31.2603 4.69423 31.6184 4.81141 31.9381 5.04485C32.2568 5.27923 32.4181 5.63829 32.4181 6.11735C32.4181 6.3836 32.3637 6.63298 32.254 6.86735C32.1462 7.10173 32.0028 7.30423 31.8228 7.47579C31.6446 7.64641 31.4356 7.78141 31.2003 7.88266C30.9621 7.98579 30.7109 8.0336 30.4428 8.0336ZM33.9678 6.76141L36.9434 6.30579L36.2121 9.2486H39.3987L38.8231 11.5642H35.6571L34.8134 15.0555C34.7356 15.3461 34.6915 15.618 34.6793 15.8711C34.6653 16.1242 34.6981 16.3427 34.7749 16.5274C34.8552 16.7153 35.0021 16.8669 35.1874 16.953C35.3853 17.0542 35.6693 17.1058 36.0406 17.1058C36.3471 17.1058 36.6462 17.0777 36.9349 17.0195C37.2308 16.9615 37.5221 16.8825 37.8068 16.7833L38.0187 18.948C37.6343 19.0867 37.219 19.2067 36.7718 19.307C36.3218 19.4102 35.7912 19.4589 35.1781 19.4589C34.2949 19.4589 33.6115 19.3295 33.124 19.0708C32.6365 18.8111 32.2934 18.4558 32.0871 18.0067C31.8837 17.5586 31.7928 17.042 31.8181 16.4598C31.8453 15.8777 31.9334 15.2645 32.0871 14.6195L33.9678 6.76141ZM39.2731 15.2439C39.2731 14.3842 39.4137 13.5733 39.6949 12.8139C39.9762 12.0545 40.3803 11.3889 40.9053 10.8199C41.4416 10.2429 42.0923 9.78403 42.8159 9.47266C43.5621 9.14454 44.3974 8.9786 45.319 8.9786C45.8956 8.9786 46.4103 9.03298 46.864 9.14079C47.3187 9.24954 47.7303 9.3911 48.1015 9.56735L47.1228 11.7705C46.8615 11.6668 46.5955 11.5752 46.3259 11.4958C46.0521 11.4114 45.7165 11.3711 45.319 11.3711C44.3712 11.3711 43.6221 11.6945 43.0634 12.3386C42.5084 12.9836 42.229 13.8517 42.229 14.9402C42.229 15.5852 42.3696 16.1073 42.6509 16.5058C42.9321 16.9052 43.4515 17.1039 44.2052 17.1039C44.5774 17.1039 44.9365 17.0655 45.2806 16.9905C45.6274 16.9145 45.9331 16.8189 46.2021 16.7064L46.414 18.9639C46.0549 19.1017 45.6584 19.2264 45.2234 19.3352C44.7884 19.4411 44.2699 19.4945 43.669 19.4945C42.8749 19.4945 42.2037 19.3802 41.6534 19.1542C41.104 18.9245 40.6502 18.6199 40.2921 18.2336C39.9324 17.8462 39.6662 17.3815 39.514 16.8752C39.3524 16.3466 39.2712 15.7967 39.2731 15.2439ZM51.8937 19.4955C51.2149 19.4955 50.6262 19.3923 50.1265 19.1908C49.6532 19.0066 49.2295 18.7145 48.889 18.3377C48.5567 17.9593 48.3056 17.5167 48.1512 17.0373C47.9791 16.5013 47.8952 15.9409 47.9028 15.378C47.9028 14.6167 48.0265 13.8574 48.2759 13.0989C48.5162 12.3543 48.8905 11.6598 49.3803 11.0495C49.8697 10.4383 50.4762 9.93084 51.1643 9.55704C51.8665 9.17266 52.6737 8.9786 53.5812 8.9786C54.2468 8.9786 54.8328 9.08173 55.339 9.28329C55.8424 9.48579 56.2578 9.77079 56.5859 10.1374C56.9112 10.5058 57.1578 10.938 57.3237 11.4386C57.4906 11.9374 57.5731 12.4914 57.5731 13.098C57.5731 13.8573 57.4512 14.6167 57.2093 15.377C56.9757 16.1188 56.6119 16.8131 56.1349 17.4273C55.653 18.0416 55.0482 18.5486 54.3593 18.9161C53.6496 19.3014 52.8274 19.4955 51.8937 19.4955ZM53.3131 11.372C52.8912 11.372 52.5199 11.493 52.2012 11.7311C51.875 11.9791 51.601 12.2891 51.3949 12.6433C51.1765 13.0108 51.0143 13.412 50.9046 13.8489C50.8002 14.2548 50.7457 14.672 50.7424 15.0911C50.7424 15.7248 50.8456 16.218 51.049 16.5733C51.2553 16.9267 51.6246 17.1039 52.1628 17.1039C52.5846 17.1039 52.9549 16.9839 53.2756 16.743C53.5943 16.503 53.8634 16.1992 54.0818 15.8317C54.2984 15.4661 54.4624 15.063 54.5721 14.627C54.679 14.1911 54.7343 13.7758 54.7343 13.3839C54.7343 12.752 54.6312 12.257 54.4268 11.9027C54.2215 11.5492 53.8503 11.372 53.3131 11.372ZM60.6687 19.2339H57.8252L60.2243 9.25048H63.0856L60.6687 19.2339ZM62.0478 8.0336C61.661 8.03713 61.2836 7.91399 60.9734 7.68298C60.6537 7.45048 60.4924 7.09235 60.4924 6.61048C60.4924 6.34516 60.5487 6.09673 60.6565 5.86141C60.7643 5.62704 60.9096 5.42548 61.0887 5.25391C61.2668 5.08423 61.4768 4.94829 61.7121 4.84516C61.9484 4.74485 62.2015 4.69423 62.4696 4.69423C62.8662 4.69423 63.2253 4.81141 63.5449 5.04485C63.8637 5.27923 64.0259 5.63829 64.0259 6.11735C64.0259 6.3836 63.9687 6.63298 63.8609 6.86735C63.7572 7.09579 63.6108 7.3023 63.4296 7.47579C63.2479 7.64721 63.0371 7.78498 62.8071 7.88266C62.569 7.98579 62.3168 8.0336 62.0478 8.0336ZM65.1312 9.70329C65.3468 9.64141 65.5878 9.56641 65.8493 9.48485C66.4947 9.29035 67.157 9.15726 67.8274 9.08735C68.2296 9.04048 68.6881 9.01891 69.1981 9.01891C70.6962 9.01891 71.7293 9.45016 72.2993 10.3108C72.8684 11.1714 72.9668 12.3489 72.5974 13.8414L71.2906 19.232H68.4312L69.6978 13.9549C69.7756 13.6249 69.8356 13.307 69.8806 12.9958C69.9272 12.7256 69.924 12.4492 69.8712 12.1802C69.8242 11.9542 69.6987 11.7522 69.5168 11.6102C69.3293 11.4649 69.0462 11.3917 68.6618 11.3917C68.2915 11.3917 67.9146 11.4311 67.5303 11.507L65.6684 19.232H62.8071L65.1312 9.70329Z" fill="white"/>
</svg>
