<svg width="24" height="24" viewBox="0 0 24 24" fill="none" xmlns="http://www.w3.org/2000/svg">
    <path d="M0.782924 2C0.350603 2 0 2.35059 0 2.78292C0 3.21524 0.350407 3.56585 0.782924 3.56585H3.80026L6.4914 16.2634C6.59789 16.7414 6.91116 17.1391 7.3069 17.136H20.3548C20.7684 17.1419 21.1489 16.7669 21.1489 16.3531C21.1489 15.9395 20.7684 15.5644 20.3548 15.5702H7.94298L7.60859 14.0043H21.3989C21.7495 14.0018 22.0806 13.7348 22.1572 13.3927L23.9839 5.56395C24.0856 5.10961 23.6912 4.61322 23.2255 4.60973H5.62712L5.20299 2.61996C5.12891 2.27229 4.79178 1.99977 4.43647 2.00014L0.782924 2ZM8.98454 17.4712C7.55252 17.4712 6.37495 18.6488 6.37495 20.0808C6.37495 21.5128 7.55252 22.6904 8.98454 22.6904C10.4165 22.6904 11.5941 21.5128 11.5941 20.0808C11.5941 18.6488 10.4165 17.4712 8.98454 17.4712ZM19.2086 17.4712C17.7766 17.4712 16.599 18.6488 16.599 20.0808C16.599 21.5128 17.7766 22.6904 19.2086 22.6904C20.6406 22.6904 21.8182 21.5128 21.8182 20.0808C21.8182 18.6488 20.6406 17.4712 19.2086 17.4712ZM8.98454 19.0371C9.5703 19.0371 10.0283 19.4951 10.0283 20.0808C10.0283 20.6666 9.57029 21.1246 8.98454 21.1246C8.39878 21.1246 7.94079 20.6664 7.94079 20.0808C7.94079 19.4951 8.39896 19.0371 8.98454 19.0371ZM19.2086 19.0371C19.7944 19.0371 20.2523 19.4951 20.2523 20.0808C20.2523 20.6666 19.7943 21.1246 19.2086 21.1246C18.6228 21.1246 18.1649 20.6664 18.1649 20.0808C18.1649 19.4951 18.623 19.0371 19.2086 19.0371Z"
          fill="#2C64F1"/>
</svg>
