<svg width="93" height="34" viewBox="0 0 93 34" fill="none" xmlns="http://www.w3.org/2000/svg">
<path d="M16.4656 32C24.7498 32 31.4656 25.2843 31.4656 17C31.4656 8.71573 24.7498 2 16.4656 2C8.18128 2 1.46555 8.71573 1.46555 17C1.46555 25.2843 8.18128 32 16.4656 32Z" fill="white" fill-opacity="0.28"/>
<path d="M18.065 18.3798C17.9613 18.3871 17.4259 18.4184 16.2346 18.4184C15.2821 18.4184 14.614 18.3919 14.3777 18.3798V18.3822C10.7145 18.2207 7.98222 17.584 7.98222 16.8195C7.98222 16.0575 10.7169 15.4184 14.3777 15.2568V17.748C14.6165 17.7649 15.3038 17.8059 16.2515 17.8059C17.3898 17.8059 17.9589 17.7576 18.065 17.748V15.2592C21.721 15.4232 24.446 16.0599 24.446 16.8219C24.446 17.584 21.7186 18.2207 18.065 18.3846V18.3798ZM18.065 15.0012V12.7729H23.1655V9.375H9.27964V12.7729H14.3801V15.0012C10.2346 15.1917 7.11887 16.0117 7.11887 16.9956C7.11887 17.9795 10.237 18.7994 14.3801 18.9924V26.1354H18.0674V18.9924C22.2057 18.8018 25.3166 17.9819 25.3166 16.998C25.3166 16.0165 22.2057 15.1941 18.0674 15.0036" fill="white"/>
<path d="M42.0733 6.7162V9.35833H44.6412V11.3408H42.0556V15.3606C42.0556 16.2484 42.5455 16.6816 43.2635 16.6816C43.6225 16.6816 44.0381 16.5685 44.3777 16.3987L45.0196 18.3617C44.36 18.6252 43.8118 18.7384 43.1132 18.7578C41.0936 18.8339 39.7725 17.6826 39.7725 15.3606V11.3408H38.0359V9.35833H39.7725V6.96202L42.0733 6.7162ZM86.3439 9.23453L86.5137 10.3098C87.2317 9.15849 88.1937 8.98871 89.1381 8.98871C90.1002 8.98871 91.0251 9.3654 91.5344 9.87472L90.4963 11.8749C90.0241 11.4787 89.5908 11.2701 88.8357 11.2701C87.6278 11.2701 86.5137 11.912 86.5137 13.6292V18.5368H84.2111V9.231L86.3439 9.23453ZM80.7007 12.8016C80.5503 11.5937 79.606 10.9889 78.2849 10.9889C77.0399 10.9889 76.0195 11.5937 75.6799 12.8016H80.7007ZM75.6428 14.708C75.7931 15.8593 76.7941 16.6905 78.4175 16.6905C79.2664 16.6905 80.3806 16.3686 80.9093 15.8222L82.3807 17.2759C81.3992 18.2945 79.7952 18.7861 78.3786 18.7861C75.1706 18.7861 73.2624 16.8037 73.2624 13.822C73.2624 10.9906 75.1883 8.95157 78.2089 8.95157C81.3232 8.95157 83.2685 10.8775 82.9095 14.708H75.6428ZM65.4881 5.32617V10.4972C66.3193 9.42199 67.338 9.10013 68.3955 9.10013C71.0376 9.10013 72.2084 10.8934 72.2084 13.631V18.5386H69.9058V13.6504C69.9058 11.9509 69.018 11.2347 67.7907 11.2347C66.4307 11.2347 65.4881 12.386 65.4881 13.7831V18.5403H63.1855V5.32794L65.4881 5.32617ZM59.3727 6.6101V9.25222H61.9405V11.2347H59.355V15.2545C59.355 16.1422 59.8466 16.5755 60.5629 16.5755C60.9219 16.5755 61.3375 16.4623 61.677 16.2926L62.319 18.2556C61.6593 18.5191 61.1111 18.6323 60.4126 18.6517C58.3929 18.7278 57.0719 17.5747 57.0719 15.2545V11.2347H55.3352V9.25222H57.0719V6.85592L59.3727 6.6101ZM53.0114 12.8016C52.8611 11.5937 51.9167 10.9889 50.5957 10.9889C49.3507 10.9889 48.3302 11.5937 47.9907 12.8016H53.0114ZM47.9536 14.708C48.1039 15.8593 49.1048 16.6905 50.7283 16.6905C51.5772 16.6905 52.6913 16.3686 53.2201 15.8222L54.6915 17.2759C53.71 18.2945 52.106 18.7861 50.6894 18.7861C47.4796 18.7861 45.5732 16.8037 45.5732 13.822C45.5732 10.9906 47.4991 8.95157 50.5179 8.95157C53.6322 8.95157 55.5757 10.8775 55.2185 14.708H47.9536Z" fill="white"/>
<path d="M43.3039 28.5005V29.375H39.907V28.5005H43.3039ZM40.219 22.9766V29.375H39.1159V22.9766H40.219ZM42.8601 25.6484V26.5098H39.907V25.6484H42.8601ZM43.282 22.9766V23.8555H39.907V22.9766H43.282Z" fill="white"/>
<path d="M44.4748 22.9766H46.738C47.2243 22.9766 47.6389 23.0498 47.9816 23.1963C48.3244 23.3428 48.5866 23.5596 48.7683 23.8467C48.9528 24.1309 49.0451 24.4824 49.0451 24.9014C49.0451 25.2207 48.9865 25.502 48.8693 25.7451C48.7522 25.9883 48.5866 26.1934 48.3728 26.3604C48.1589 26.5244 47.904 26.6519 47.6081 26.7427L47.2741 26.9053H45.2395L45.2307 26.0308H46.7556C47.0192 26.0308 47.239 25.9839 47.4148 25.8901C47.5905 25.7964 47.7224 25.6689 47.8103 25.5078C47.9011 25.3438 47.9465 25.1592 47.9465 24.9541C47.9465 24.7314 47.9025 24.5381 47.8147 24.374C47.7297 24.207 47.5979 24.0796 47.4191 23.9917C47.2404 23.9009 47.0134 23.8555 46.738 23.8555H45.5778V29.375H44.4748V22.9766ZM48.1267 29.375L46.6237 26.501L47.7795 26.4966L49.3044 29.3179V29.375H48.1267Z" fill="white"/>
<path d="M54.1931 27.292H55.2917C55.2565 27.7109 55.1393 28.0845 54.9401 28.4126C54.7409 28.7378 54.4611 28.9941 54.1008 29.1816C53.7404 29.3691 53.3024 29.4629 52.7868 29.4629C52.3913 29.4629 52.0353 29.3926 51.7189 29.252C51.4025 29.1084 51.1315 28.9062 50.9059 28.6455C50.6804 28.3818 50.5075 28.064 50.3874 27.6919C50.2702 27.3198 50.2116 26.9038 50.2116 26.4438V25.9121C50.2116 25.4521 50.2717 25.0361 50.3918 24.6641C50.5148 24.292 50.6906 23.9741 50.9191 23.7104C51.1476 23.4438 51.4216 23.2402 51.7409 23.0996C52.0632 22.959 52.425 22.8887 52.8264 22.8887C53.3361 22.8887 53.7668 22.9824 54.1183 23.1699C54.4699 23.3574 54.7424 23.6167 54.9357 23.9478C55.132 24.2788 55.2521 24.6582 55.2961 25.0859H54.1974C54.1682 24.8105 54.1037 24.5747 54.0041 24.3784C53.9074 24.1821 53.7639 24.0327 53.5734 23.9302C53.383 23.8247 53.134 23.772 52.8264 23.772C52.5744 23.772 52.3547 23.8188 52.1672 23.9126C51.9797 24.0063 51.8229 24.144 51.697 24.3257C51.571 24.5073 51.4758 24.7314 51.4113 24.998C51.3498 25.2617 51.319 25.5635 51.319 25.9033V26.4438C51.319 26.7661 51.3469 27.0591 51.4025 27.3228C51.4611 27.5835 51.549 27.8076 51.6662 27.9951C51.7863 28.1826 51.9387 28.3276 52.1232 28.4302C52.3078 28.5327 52.529 28.584 52.7868 28.584C53.1003 28.584 53.3537 28.5342 53.5471 28.4346C53.7433 28.335 53.8913 28.1899 53.9909 27.9995C54.0934 27.8062 54.1608 27.5703 54.1931 27.292Z" fill="white"/>
<path d="M58.5895 26.2197V27.0635H56.2648V26.2197H58.5895Z" fill="white"/>
<path d="M64.0143 28.5312V29.375H59.7252V28.6499L61.8083 26.3779C62.0368 26.1201 62.2169 25.8975 62.3488 25.71C62.4806 25.5225 62.5729 25.354 62.6256 25.2046C62.6813 25.0522 62.7091 24.9043 62.7091 24.7607C62.7091 24.5586 62.671 24.3813 62.5949 24.229C62.5216 24.0737 62.4132 23.9521 62.2697 23.8643C62.1261 23.7734 61.9518 23.728 61.7467 23.728C61.5094 23.728 61.3102 23.7793 61.1491 23.8818C60.9879 23.9844 60.8664 24.1265 60.7843 24.3081C60.7023 24.4868 60.6613 24.6919 60.6613 24.9233H59.6022C59.6022 24.5513 59.6872 24.2114 59.8571 23.9038C60.027 23.5933 60.2731 23.3472 60.5954 23.1655C60.9176 22.981 61.3058 22.8887 61.7599 22.8887C62.1876 22.8887 62.5509 22.9604 62.8498 23.104C63.1486 23.2476 63.3756 23.4512 63.5309 23.7148C63.6891 23.9785 63.7682 24.2905 63.7682 24.6509C63.7682 24.8501 63.736 25.0479 63.6715 25.2441C63.6071 25.4404 63.5148 25.6367 63.3947 25.833C63.2775 26.0264 63.1383 26.2212 62.9772 26.4175C62.8161 26.6108 62.6388 26.8071 62.4455 27.0063L61.0612 28.5312H64.0143Z" fill="white"/>
<path d="M69.2809 25.6396V26.6855C69.2809 27.1865 69.2311 27.6143 69.1315 27.9688C69.0348 28.3203 68.8942 28.606 68.7096 28.8257C68.525 29.0454 68.3038 29.2065 68.046 29.3091C67.7911 29.4116 67.5055 29.4629 67.1891 29.4629C66.9371 29.4629 66.7028 29.4307 66.486 29.3662C66.2721 29.3018 66.0787 29.2007 65.9059 29.063C65.733 28.9253 65.5851 28.748 65.462 28.5312C65.3419 28.3115 65.2482 28.0493 65.1808 27.7446C65.1163 27.4399 65.0841 27.0869 65.0841 26.6855V25.6396C65.0841 25.1357 65.1339 24.7109 65.2335 24.3652C65.3331 24.0166 65.4752 23.7339 65.6598 23.5171C65.8444 23.2974 66.0641 23.1377 66.319 23.0381C66.5768 22.9385 66.8639 22.8887 67.1803 22.8887C67.4352 22.8887 67.6696 22.9209 67.8834 22.9854C68.1002 23.0469 68.2936 23.145 68.4635 23.2798C68.6364 23.4146 68.7828 23.5903 68.903 23.8071C69.026 24.021 69.1198 24.2803 69.1842 24.585C69.2487 24.8867 69.2809 25.2383 69.2809 25.6396ZM68.2218 26.835V25.4814C68.2218 25.2266 68.2072 25.0024 68.1779 24.8091C68.1486 24.6128 68.1046 24.4473 68.046 24.3125C67.9904 24.1748 67.92 24.0635 67.8351 23.9785C67.7501 23.8906 67.6534 23.8276 67.545 23.7896C67.4366 23.7485 67.3151 23.728 67.1803 23.728C67.0162 23.728 66.8698 23.7603 66.7408 23.8247C66.6119 23.8862 66.5035 23.9858 66.4156 24.1235C66.3278 24.2612 66.2604 24.4429 66.2135 24.6685C66.1696 24.8911 66.1476 25.1621 66.1476 25.4814V26.835C66.1476 27.0928 66.1622 27.3198 66.1915 27.5161C66.2208 27.7124 66.2648 27.8809 66.3234 28.0215C66.382 28.1592 66.4523 28.2734 66.5343 28.3643C66.6193 28.4521 66.7159 28.5166 66.8243 28.5576C66.9357 28.5986 67.0573 28.6191 67.1891 28.6191C67.3561 28.6191 67.504 28.5869 67.6329 28.5225C67.7618 28.458 67.8702 28.3555 67.9581 28.2148C68.046 28.0713 68.1119 27.8853 68.1559 27.6567C68.1998 27.4282 68.2218 27.1543 68.2218 26.835Z" fill="white"/>
</svg>
