<svg width="102" height="24" viewBox="0 0 102 24" fill="none" xmlns="http://www.w3.org/2000/svg">
<path d="M6.846 9.03759L0.172413 12.0728L6.846 16.0154L13.5173 12.0728L6.846 9.03759Z" fill="white"/>
<path d="M0.172413 12.0728L6.846 16.0154L6.846 1L0.172413 12.0728Z" fill="white"/>
<path d="M6.846 1L6.846 16.0154L13.5173 12.0728L6.846 1Z" fill="white"/>
<path d="M0.172413 13.3374L6.846 22.739V17.28L0.172413 13.3374Z" fill="white"/>
<path d="M6.846 17.28V22.739L13.5219 13.3374L6.846 17.28Z" fill="white"/>
<path d="M26.9859 13.3124C26.9859 13.4861 26.8349 13.6272 26.6543 13.6272H20.2592C20.4185 15.143 21.608 16.5267 23.28 16.5267C24.4232 16.5267 25.2721 16.1072 25.9109 15.2325C26.0027 15.1111 26.1415 15.0345 26.3183 15.1073C26.3645 15.1262 26.4053 15.1563 26.4368 15.195C26.4684 15.2337 26.4897 15.2797 26.4988 15.3288C26.512 15.4029 26.4969 15.4793 26.4563 15.5428C25.8138 16.62 24.5325 17.148 23.2762 17.148C21.1248 17.148 19.5916 15.3008 19.5916 13.3246C19.5916 11.3483 21.1248 9.5011 23.2762 9.5011C25.4277 9.49731 26.9821 11.3408 26.9859 13.3124ZM26.3016 13.0143C26.1628 11.497 24.9528 10.1148 23.28 10.1148C21.608 10.1148 20.4192 11.4978 20.2592 13.0143H26.3016ZM34.7466 9.65055C34.829 9.65049 34.9082 9.68239 34.9677 9.73954C35.0271 9.79669 35.062 9.87465 35.0652 9.95703C35.0652 10.1346 34.9271 10.2635 34.7466 10.2635H33.0321V16.7201C33.0284 16.8023 32.9932 16.88 32.934 16.937C32.8747 16.994 32.7957 17.0261 32.7134 17.0266C32.6307 17.0271 32.5511 16.9954 32.4914 16.9382C32.4316 16.881 32.3965 16.8028 32.3933 16.7201V10.2643H30.7471C30.562 10.2643 30.427 10.1308 30.427 9.95703C30.427 9.80379 30.5658 9.65055 30.7463 9.65055H32.3933V7.28745C32.3933 7.138 32.4988 7.00145 32.6497 6.97641C32.8644 6.94455 33.0321 7.08565 33.0321 7.27986V9.65055H34.7466ZM45.2041 12.7723V16.6837C45.2041 16.8612 45.0448 16.9902 44.8855 16.9902C44.7004 16.9902 44.5654 16.8574 44.5654 16.6837V12.7723C44.5654 11.453 43.7886 10.1346 42.2546 10.1346C40.2883 10.1346 39.4401 11.7838 39.5532 13.474C39.5532 13.518 39.5744 13.716 39.5744 13.7357V16.6716C39.5754 16.7454 39.5502 16.8172 39.5032 16.8741C39.4563 16.9311 39.3906 16.9695 39.318 16.9826C39.1033 17.0145 38.9357 16.8734 38.9357 16.6792V3.83193C38.9357 3.67869 39.0737 3.52545 39.2543 3.52545C39.337 3.52499 39.4166 3.55672 39.4764 3.61391C39.5361 3.6711 39.5713 3.74929 39.5744 3.83193V11.1033C40.1244 10.1596 41.1076 9.52234 42.2508 9.52234C44.1284 9.52234 45.2041 11.1026 45.2041 12.7723ZM56.6707 13.3124C56.6707 13.4861 56.519 13.6272 56.3384 13.6272H49.9394C50.0988 15.143 51.2883 16.5267 52.9603 16.5267C54.1035 16.5267 54.9517 16.1072 55.5904 15.2325C55.683 15.1111 55.8218 15.0345 55.9978 15.1073C56.0442 15.1261 56.0851 15.1562 56.1168 15.1949C56.1485 15.2336 56.1699 15.2797 56.1791 15.3288C56.1923 15.4029 56.1772 15.4793 56.1366 15.5428C55.4941 16.62 54.2128 17.148 52.9565 17.148C50.805 17.148 49.2711 15.3008 49.2711 13.3246C49.2711 11.3483 50.805 9.5011 52.9565 9.5011C55.111 9.49731 56.6661 11.3408 56.6707 13.3124ZM55.9811 13.0143C55.8423 11.497 54.6323 10.1148 52.9603 10.1148C51.2883 10.1148 50.0988 11.4978 49.9394 13.0143H55.9811ZM64.5186 9.93655C64.5186 10.1338 64.4048 10.243 64.2205 10.2666C62.3421 10.529 61.4978 12.0008 61.4978 13.7152V16.6511C61.4986 16.7249 61.4734 16.7966 61.4264 16.8535C61.3795 16.9104 61.3139 16.9489 61.2414 16.9621C61.0274 16.994 60.859 16.8521 60.859 16.6587V9.96841C60.859 9.81896 60.9645 9.68241 61.1154 9.65738C61.3301 9.62552 61.4978 9.76662 61.4978 9.96083V11.3233C62.0235 10.4683 63.078 9.65434 64.1742 9.65434C64.3335 9.64979 64.5186 9.76283 64.5186 9.93655ZM75.0232 13.3124C75.0232 13.4854 74.8715 13.6265 74.691 13.6265H68.2958C68.4559 15.1422 69.6446 16.5259 71.3174 16.5259C72.4599 16.5259 73.3088 16.1064 73.9475 15.2317C74.0401 15.1103 74.1781 15.0337 74.3549 15.1066C74.4011 15.1254 74.4419 15.1556 74.4734 15.1943C74.505 15.233 74.5263 15.279 74.5354 15.3281C74.5521 15.429 74.5225 15.4851 74.4937 15.542C73.8504 16.6192 72.5691 17.1472 71.3128 17.1472C69.1614 17.1472 67.6282 15.3 67.6282 13.3238C67.6282 11.3476 69.1614 9.50034 71.3128 9.50034C73.4643 9.49655 75.0187 11.34 75.0225 13.3117L75.0232 13.3124ZM74.3382 13.0135C74.1994 11.4963 72.9894 10.1141 71.3174 10.1141C69.6446 10.1141 68.4559 11.497 68.2958 13.0135H74.3382ZM85.3465 10.0132V16.7194C85.3465 16.8969 85.1865 17.0259 85.0272 17.0259C84.8421 17.0259 84.7078 16.8931 84.7078 16.7194V15.4449C84.1821 16.4577 83.2414 17.1791 82.0519 17.1791C80.153 17.1791 79.0985 15.5981 79.0985 13.9284V9.99724C79.0985 9.844 79.2374 9.69076 79.4179 9.69076C79.5005 9.6905 79.5799 9.72231 79.6395 9.77948C79.6991 9.83666 79.7342 9.91473 79.7373 9.99724V13.9292C79.7373 15.2484 80.5141 16.5669 82.0481 16.5669C84.1995 16.5669 84.7032 14.6354 84.7032 12.5022V9.99724C84.7032 9.81972 84.8883 9.63841 85.1152 9.7029C85.1816 9.7238 85.2397 9.76512 85.2812 9.82096C85.3227 9.87681 85.3456 9.94358 85.3465 10.0132ZM101.523 12.7472V16.6792C101.523 16.8567 101.363 16.9857 101.203 16.9857C101.018 16.9857 100.884 16.8529 100.884 16.6792V12.7472C100.884 11.428 100.106 10.1338 98.5731 10.1338C96.6485 10.1338 95.9172 12.11 95.9172 13.6462V16.6792C95.9172 16.8567 95.7579 16.9857 95.5978 16.9857C95.4134 16.9857 95.2792 16.8529 95.2792 16.6792V12.7472C95.2792 11.428 94.5016 10.1338 92.9676 10.1338C91.0225 10.1338 90.2199 11.6055 90.2912 13.562C90.2912 13.606 90.3125 13.6948 90.2912 13.7152V16.6708C90.2922 16.7452 90.2665 16.8175 90.2188 16.8746C90.171 16.9316 90.1044 16.9697 90.031 16.9819C89.8163 17.0137 89.6487 16.8726 89.6487 16.6784V9.96841C89.6487 9.81896 89.7534 9.68241 89.9051 9.65738C90.119 9.62552 90.2874 9.76662 90.2874 9.96083V11.0813C90.8374 10.1376 91.8206 9.52083 92.9639 9.52083C94.2664 9.52083 95.2746 10.3113 95.6865 11.4766C96.2115 10.3356 97.241 9.52083 98.5685 9.52083C100.447 9.52083 101.523 11.0775 101.523 12.7472Z" fill="white"/>
</svg>
