<svg width="94" height="34" viewBox="0 0 94 34" fill="none" xmlns="http://www.w3.org/2000/svg">
<g opacity="0.8">
<path d="M30.3946 19.6148C30.3946 19.7681 30.2663 19.8929 30.113 19.8929H24.692C24.8282 21.2326 25.8352 22.4542 27.2532 22.4542C27.6921 22.4734 28.1285 22.3782 28.5194 22.1777C28.9103 21.9773 29.2424 21.6786 29.4829 21.3109C29.5624 21.2042 29.6793 21.1361 29.828 21.2008C29.8679 21.2182 29.9028 21.2452 29.9296 21.2795C29.9564 21.3138 29.9742 21.3543 29.9813 21.3972C29.9961 21.4858 29.97 21.5357 29.9473 21.5857C29.4023 22.537 28.3158 23.0048 27.2509 23.0048C25.4277 23.0048 24.1289 21.3734 24.1289 19.6284C24.1289 17.8835 25.4288 16.2521 27.2509 16.2521C29.0731 16.2521 30.3923 17.8755 30.3957 19.6182L30.3946 19.6148ZM29.828 19.3548C29.71 18.0152 28.6848 16.7936 27.2668 16.7936C25.8488 16.7936 24.8407 18.0152 24.7056 19.3548H29.828ZM36.9872 16.3838C37.1439 16.3838 37.2574 16.52 37.2574 16.654C37.2574 16.8106 37.1393 16.9242 36.9872 16.9242H35.534V22.6267C35.534 22.763 35.416 22.8969 35.2638 22.8969C35.1117 22.8969 34.9936 22.7607 34.9936 22.6267V16.9242H33.5972C33.4405 16.9242 33.327 16.8061 33.327 16.654C33.327 16.5177 33.4451 16.3838 33.5972 16.3838H34.9936V14.2925C34.9936 14.1609 35.0822 14.0394 35.2207 14.0178C35.4023 13.9894 35.5442 14.1143 35.5442 14.2846V16.3792L36.9872 16.3838ZM45.8425 19.1402V22.5949C45.8425 22.7516 45.7062 22.8651 45.5723 22.8651C45.4156 22.8651 45.3021 22.7471 45.3021 22.5949V19.1516C45.3021 17.9868 44.6436 16.822 43.3426 16.822C41.676 16.822 40.9562 18.2786 41.0527 19.7715C41.0527 19.8112 41.0708 19.9849 41.0708 20.0031V22.5961C41.0708 22.7278 40.9823 22.8492 40.8438 22.8708C40.6621 22.8992 40.5202 22.7743 40.5202 22.604V11.2568C40.5202 11.1205 40.6383 10.9866 40.7904 10.9866C40.9426 10.9866 41.0606 11.1228 41.0606 11.2568V17.6791C41.5147 16.8458 42.3605 16.2827 43.3289 16.2827C44.9206 16.2827 45.8334 17.6791 45.8334 19.155L45.8425 19.1402ZM55.5538 19.6318C55.5538 19.7851 55.4255 19.91 55.2722 19.91H49.8478C49.984 21.2496 50.991 22.4712 52.409 22.4712C52.8479 22.4905 53.2843 22.3952 53.6752 22.1948C54.0662 21.9943 54.3982 21.6956 54.6387 21.3279C54.7182 21.2212 54.8351 21.1531 54.9839 21.2178C55.0237 21.2352 55.0587 21.2623 55.0854 21.2966C55.1122 21.3309 55.13 21.3713 55.1371 21.4142C55.1519 21.5028 55.1258 21.5527 55.1031 21.6027C54.5581 22.5541 53.4716 23.0218 52.4067 23.0218C50.5835 23.0218 49.2847 21.3904 49.2847 19.6454C49.2847 17.9005 50.5846 16.2691 52.4067 16.2691C54.2289 16.2691 55.5515 17.8926 55.5549 19.6352L55.5538 19.6318ZM54.9702 19.3718C54.8522 18.0322 53.827 16.8106 52.409 16.8106C50.991 16.8106 49.9829 18.0322 49.8478 19.3718H54.9702ZM62.2202 16.654C62.2202 16.8288 62.1237 16.9242 61.967 16.9457C60.3754 17.1773 59.659 18.4784 59.659 19.9906V22.5836C59.659 22.7153 59.5704 22.8368 59.4319 22.8583C59.2503 22.8867 59.1084 22.7618 59.1084 22.5915V16.6823C59.1084 16.5506 59.1969 16.4292 59.3354 16.4076C59.5171 16.3792 59.659 16.5041 59.659 16.6744V17.8778C60.104 17.1228 60.9986 16.4019 61.9273 16.4019C62.0635 16.3985 62.2191 16.4984 62.2191 16.6517L62.2202 16.654ZM71.1232 19.633C71.1232 19.7862 70.9949 19.9111 70.8416 19.9111H65.4206C65.5568 21.2508 66.5638 22.4723 67.9818 22.4723C68.4207 22.4916 68.8571 22.3963 69.248 22.1959C69.639 21.9955 69.971 21.6967 70.2115 21.3291C70.291 21.2224 70.4079 21.1543 70.5567 21.219C70.5965 21.2363 70.6315 21.2634 70.6582 21.2977C70.685 21.332 70.7028 21.3725 70.7099 21.4154C70.7247 21.5039 70.6986 21.5539 70.6759 21.6038C70.1309 22.5552 69.0444 23.0229 67.9795 23.0229C66.1563 23.0229 64.8575 21.3915 64.8575 19.6466C64.8575 17.9016 66.1574 16.2702 67.9795 16.2702C69.8017 16.2702 71.1209 17.8937 71.1243 19.6364L71.1232 19.633ZM70.5567 19.373C70.4386 18.0333 69.4134 16.8118 67.9954 16.8118C66.5775 16.8118 65.5693 18.0333 65.4342 19.373H70.5567ZM79.8888 22.646C79.8888 22.8027 79.7525 22.9162 79.6186 22.9162C79.4619 22.9162 79.3484 22.7982 79.3484 22.646V21.5107C78.9033 22.4042 78.1052 23.0434 77.0971 23.0434C75.4872 23.0434 74.5926 21.647 74.5926 20.1711V16.6971C74.5926 16.5609 74.7107 16.4269 74.8628 16.4269C75.015 16.4269 75.133 16.5631 75.133 16.6971V20.1711C75.133 21.3359 75.7915 22.5007 77.0925 22.5007C78.9158 22.5007 79.3438 20.7944 79.3438 18.9109V16.688C79.3438 16.5313 79.5005 16.3701 79.6924 16.4269C79.8104 16.4666 79.8888 16.5802 79.8888 16.7016V22.646ZM93.6031 19.1164V22.5904C93.6031 22.7471 93.4669 22.8606 93.3329 22.8606C93.1762 22.8606 93.0627 22.7425 93.0627 22.5904V19.1164C93.0627 17.9516 92.4042 16.8084 91.1032 16.8084C89.4718 16.8084 88.8519 18.5533 88.8519 19.9111V22.5904C88.8519 22.7471 88.7157 22.8606 88.5817 22.8606C88.425 22.8606 88.3115 22.7425 88.3115 22.5904V19.1164C88.3115 17.9516 87.653 16.8084 86.352 16.8084C84.7024 16.8084 84.0224 18.1083 84.0837 19.8362C84.0837 19.8759 84.1018 19.9542 84.0837 19.9724V22.5836C84.0837 22.7153 83.9951 22.8368 83.8623 22.8583C83.6806 22.8867 83.5387 22.7618 83.5387 22.5915V16.654C83.5387 16.5223 83.6273 16.4008 83.7658 16.3792C83.9474 16.3508 84.0893 16.4757 84.0893 16.646V17.636C84.5435 16.8027 85.3893 16.2577 86.3577 16.2577C87.4623 16.2577 88.3172 16.9559 88.6657 17.9856C89.1107 16.9775 89.9827 16.2577 91.1089 16.2577C92.7005 16.2577 93.6133 17.6201 93.6133 19.096" fill="white"/>
<path d="M10.2103 12.8303L0.386688 17.298L10.2103 23.1018L20.03 17.298L10.2103 12.8303Z" fill="white"/>
<path d="M0.386688 17.2995L10.2103 23.1033V1.00024L0.386688 17.2995Z" fill="white"/>
<path d="M10.2103 1.00024V23.1033L20.0306 17.2995L10.2103 1.00024Z" fill="white"/>
<path d="M0.386688 19.1604L10.2103 32.9999V24.9642L0.386688 19.1604Z" fill="white"/>
<path d="M10.2103 24.9642V32.9999L20.0383 19.1604L10.2103 24.9642Z" fill="white"/>
</g>
</svg>
