<svg width="12" height="12" viewBox="0 0 12 12" fill="none" xmlns="http://www.w3.org/2000/svg">
    <path fill-rule="evenodd" clip-rule="evenodd"
          d="M2.53725 5.2963V3.46667C2.53725 1.55208 4.08933 0 6.00392 0C7.91851 0 9.47059 1.55208 9.47059 3.46667V5.2963H10.2331C10.6586 5.2963 11.0035 5.6412 11.0035 6.06667V11.2296C11.0035 11.6551 10.6586 12 10.2331 12H1.76687C1.34141 12 0.996499 11.6551 0.996499 11.2296V6.06667C0.996499 5.6412 1.34141 5.2963 1.76687 5.2963H2.53725ZM4.07799 3.46667C4.07799 2.40301 4.94026 1.54074 6.00392 1.54074C7.06758 1.54074 7.92984 2.40301 7.92984 3.46667V5.2963H4.07799V3.46667Z"
          fill="white" fill-opacity="0.8"/>
</svg>
