<svg width="93" height="18" viewBox="0 0 93 18" fill="none" xmlns="http://www.w3.org/2000/svg">
    <path d="M28.2403 12.7055C28.1486 12.4854 28.0248 12.2057 27.8689 11.8664C27.7222 11.5271 27.5617 11.1603 27.3875 10.766C27.2132 10.3717 27.0252 9.96817 26.8235 9.5555C26.6309 9.13367 26.4475 8.73934 26.2733 8.37253C26.099 7.99655 25.934 7.66183 25.7781 7.36838C25.6313 7.07493 25.5121 6.85026 25.4204 6.69436C25.3195 7.77646 25.237 8.95026 25.1728 10.2158C25.1086 11.4721 25.0536 12.7422 25.0078 14.026H23.701C23.7377 13.2007 23.7789 12.3708 23.8248 11.5363C23.8706 10.6926 23.9211 9.8673 23.9761 9.06031C24.0403 8.24415 24.1045 7.45091 24.1687 6.6806C24.242 5.9103 24.32 5.18126 24.4025 4.49348H25.5717C25.8193 4.89698 26.0853 5.37383 26.3695 5.92405C26.6538 6.47427 26.9381 7.052 27.2224 7.65725C27.5067 8.25332 27.7818 8.85397 28.0477 9.45922C28.3137 10.0553 28.5567 10.6009 28.7768 11.0961C28.9968 10.6009 29.2399 10.0553 29.5058 9.45922C29.7717 8.85397 30.0469 8.25332 30.3311 7.65725C30.6154 7.052 30.8997 6.47427 31.184 5.92405C31.4683 5.37383 31.7342 4.89698 31.9818 4.49348H33.151C33.4628 7.56554 33.6966 10.7431 33.8525 14.026H32.5458C32.4999 12.7422 32.4449 11.4721 32.3807 10.2158C32.3165 8.95026 32.234 7.77646 32.1331 6.69436C32.0414 6.85026 31.9176 7.07493 31.7617 7.36838C31.615 7.66183 31.4545 7.99655 31.2803 8.37253C31.106 8.73934 30.918 9.13367 30.7163 9.5555C30.5237 9.96817 30.3403 10.3717 30.1661 10.766C29.9918 11.1603 29.8268 11.5271 29.6709 11.8664C29.5241 12.2057 29.4049 12.4854 29.3132 12.7055H28.2403Z"
          fill="white"/>
    <path d="M38.2831 13.1044C38.5857 13.1044 38.8517 13.0998 39.0809 13.0907C39.3193 13.0723 39.5165 13.0448 39.6724 13.0081V10.876C39.5807 10.8302 39.4294 10.7935 39.2185 10.766C39.0167 10.7293 38.7691 10.711 38.4757 10.711C38.2831 10.711 38.0768 10.7247 37.8567 10.7522C37.6458 10.7797 37.4486 10.8394 37.2652 10.9311C37.091 11.0136 36.9442 11.1328 36.825 11.2887C36.7058 11.4354 36.6462 11.6326 36.6462 11.8802C36.6462 12.3387 36.7929 12.6597 37.0864 12.8431C37.3798 13.0173 37.7787 13.1044 38.2831 13.1044ZM38.1731 6.69436C38.6866 6.69436 39.1176 6.76314 39.4661 6.90069C39.8237 7.02908 40.108 7.21707 40.3189 7.46467C40.539 7.7031 40.6949 7.99196 40.7866 8.33126C40.8783 8.6614 40.9242 9.02821 40.9242 9.4317V13.9022C40.8141 13.9206 40.6582 13.9481 40.4565 13.9848C40.2639 14.0123 40.0438 14.0398 39.7962 14.0673C39.5486 14.0948 39.2781 14.1177 38.9846 14.1361C38.7003 14.1636 38.4161 14.1774 38.1318 14.1774C37.7283 14.1774 37.3569 14.1361 37.0176 14.0536C36.6783 13.971 36.3848 13.8426 36.1372 13.6684C35.8896 13.485 35.6971 13.2466 35.5595 12.9531C35.422 12.6597 35.3532 12.3066 35.3532 11.8939C35.3532 11.4996 35.4311 11.1603 35.587 10.876C35.7521 10.5918 35.9722 10.3625 36.2473 10.1883C36.5224 10.014 36.8434 9.88564 37.2102 9.8031C37.577 9.72057 37.9621 9.6793 38.3656 9.6793C38.494 9.6793 38.627 9.68847 38.7645 9.70681C38.9021 9.71599 39.0305 9.73433 39.1497 9.76184C39.2781 9.78018 39.3881 9.79852 39.4798 9.81686C39.5715 9.8352 39.6357 9.84895 39.6724 9.85812V9.50048C39.6724 9.28956 39.6495 9.08323 39.6036 8.88148C39.5578 8.67057 39.4752 8.48716 39.356 8.33126C39.2368 8.1662 39.0717 8.03781 38.8608 7.94611C38.6591 7.84524 38.3931 7.7948 38.063 7.7948C37.6412 7.7948 37.2698 7.8269 36.9488 7.89109C36.637 7.94611 36.4032 8.00572 36.2473 8.06991L36.096 7.01074C36.261 6.93737 36.5361 6.8686 36.9213 6.8044C37.3065 6.73104 37.7237 6.69436 38.1731 6.69436Z"
          fill="white"/>
    <path d="M43.0488 7.07951C43.3423 7.00615 43.732 6.9282 44.2181 6.84567C44.7041 6.76314 45.2635 6.72187 45.8962 6.72187C46.4648 6.72187 46.9371 6.8044 47.313 6.96947C47.689 7.12537 47.9871 7.35004 48.2072 7.64349C48.4364 7.92777 48.5969 8.27166 48.6886 8.67515C48.7803 9.07865 48.8261 9.52341 48.8261 10.0094V14.026H47.5469V10.2845C47.5469 9.84437 47.5148 9.46839 47.4506 9.15659C47.3956 8.8448 47.2993 8.59262 47.1617 8.40004C47.0242 8.20747 46.8408 8.06991 46.6115 7.98738C46.3823 7.89567 46.098 7.84982 45.7587 7.84982C45.6211 7.84982 45.479 7.85441 45.3323 7.86358C45.1855 7.87275 45.0434 7.8865 44.9058 7.90484C44.7775 7.91401 44.6582 7.92777 44.5482 7.94611C44.4473 7.96445 44.374 7.97821 44.3281 7.98738V14.026H43.0488V7.07951Z"
          fill="white"/>
    <path d="M49.8666 15.3603C49.9675 15.4062 50.0959 15.4474 50.2518 15.4841C50.4168 15.53 50.5773 15.5529 50.7332 15.5529C51.2376 15.5529 51.6319 15.4383 51.9162 15.209C52.2005 14.9889 52.4572 14.6267 52.6865 14.1223C52.1088 13.0219 51.5677 11.8573 51.0634 10.6284C50.5682 9.39044 50.1555 8.13869 49.8254 6.87318H51.2009C51.3018 7.28585 51.421 7.73061 51.5586 8.20747C51.7053 8.68432 51.8658 9.17494 52.04 9.6793C52.2142 10.1837 52.4022 10.688 52.604 11.1924C52.8057 11.6968 53.0166 12.1828 53.2367 12.6505C53.5852 11.6876 53.8878 10.7339 54.1446 9.78935C54.4014 8.8448 54.6444 7.87275 54.8736 6.87318H56.1942C55.864 8.22122 55.4972 9.51882 55.0937 10.766C54.6902 12.004 54.2546 13.164 53.7869 14.2461C53.6035 14.6588 53.411 15.0119 53.2092 15.3053C53.0166 15.6079 52.8011 15.8555 52.5627 16.0481C52.3243 16.2407 52.0537 16.3828 51.7511 16.4745C51.4577 16.5662 51.123 16.6121 50.747 16.6121C50.6461 16.6121 50.5406 16.6029 50.4306 16.5846C50.3206 16.5754 50.2105 16.5571 50.1005 16.5295C49.9996 16.5112 49.9033 16.4883 49.8116 16.4608C49.7291 16.4333 49.6695 16.4103 49.6328 16.392L49.8666 15.3603Z"
          fill="white"/>
    <path d="M59.0563 13.2832C59.0563 13.5308 58.9737 13.7463 58.8087 13.9298C58.6436 14.1132 58.4189 14.2049 58.1347 14.2049C57.8504 14.2049 57.6257 14.1132 57.4606 13.9298C57.2956 13.7463 57.213 13.5308 57.213 13.2832C57.213 13.0356 57.2956 12.8201 57.4606 12.6367C57.6257 12.4533 57.8504 12.3616 58.1347 12.3616C58.4189 12.3616 58.6436 12.4533 58.8087 12.6367C58.9737 12.8201 59.0563 13.0356 59.0563 13.2832Z"
          fill="white"/>
    <path d="M63.4135 13.0769C64.8074 13.0769 65.5044 12.6001 65.5044 11.6463C65.5044 11.3529 65.4402 11.1053 65.3118 10.9035C65.1926 10.6926 65.0275 10.5138 64.8166 10.3671C64.6057 10.2112 64.3627 10.0782 64.0876 9.96817C63.8216 9.85813 63.5373 9.74808 63.2347 9.63804C62.8862 9.51882 62.5561 9.38585 62.2443 9.23913C61.9325 9.08323 61.662 8.90441 61.4327 8.70266C61.2035 8.49175 61.0201 8.24415 60.8825 7.95987C60.7541 7.67559 60.6899 7.3317 60.6899 6.9282C60.6899 6.0937 60.9742 5.44261 61.5428 4.97492C62.1113 4.50724 62.8954 4.27339 63.895 4.27339C64.4727 4.27339 64.9954 4.33758 65.4631 4.46597C65.94 4.58518 66.2884 4.71815 66.5085 4.86488L66.0821 5.95156C65.8895 5.83235 65.6007 5.71772 65.2155 5.60768C64.8395 5.48846 64.3993 5.42885 63.895 5.42885C63.6382 5.42885 63.3998 5.45637 63.1797 5.51139C62.9596 5.56641 62.767 5.64894 62.602 5.75899C62.4369 5.86903 62.3039 6.01117 62.2031 6.18541C62.1113 6.35047 62.0655 6.54764 62.0655 6.77689C62.0655 7.03366 62.1159 7.24917 62.2168 7.4234C62.3177 7.59764 62.4598 7.75353 62.6432 7.89109C62.8266 8.01947 63.0376 8.13869 63.276 8.24873C63.5236 8.35878 63.7941 8.46882 64.0876 8.57886C64.5002 8.74393 64.8762 8.909 65.2155 9.07406C65.564 9.23913 65.862 9.43629 66.1096 9.66555C66.3664 9.89481 66.5635 10.1699 66.7011 10.4909C66.8387 10.8027 66.9074 11.1832 66.9074 11.6326C66.9074 12.4671 66.6002 13.109 65.9858 13.5584C65.3806 14.0077 64.5231 14.2324 63.4135 14.2324C63.0376 14.2324 62.6891 14.2049 62.3681 14.1498C62.0563 14.104 61.7766 14.049 61.529 13.9848C61.2814 13.9114 61.0659 13.838 60.8825 13.7647C60.7083 13.6822 60.5707 13.6134 60.4699 13.5584L60.8688 12.4579C61.0797 12.5771 61.4007 12.7101 61.8317 12.8568C62.2627 13.0035 62.79 13.0769 63.4135 13.0769Z"
          fill="white"/>
    <path d="M71.0234 10.092C71.2985 10.3029 71.5874 10.5642 71.89 10.876C72.2018 11.1878 72.5044 11.5271 72.7979 11.8939C73.1005 12.2516 73.3848 12.6184 73.6507 12.9944C73.9167 13.3612 74.1414 13.7051 74.3248 14.026H72.8254C72.6328 13.7051 72.4082 13.3795 72.1514 13.0494C71.9038 12.7101 71.6424 12.3891 71.3673 12.0865C71.0922 11.7747 70.8125 11.4904 70.5282 11.2337C70.244 10.9769 69.9734 10.7614 69.7167 10.5872V14.026H68.4374V3.57186L69.7167 3.35177V9.87188C69.9368 9.65179 70.1798 9.40878 70.4457 9.14284C70.7117 8.8769 70.973 8.60637 71.2298 8.33126C71.4865 8.05615 71.7296 7.7948 71.9588 7.5472C72.1881 7.29043 72.3852 7.06576 72.5503 6.87318H74.0497C73.8387 7.10244 73.6095 7.35462 73.3619 7.62973C73.1143 7.90484 72.8575 8.18454 72.5916 8.46882C72.3256 8.74393 72.0551 9.02363 71.78 9.30791C71.5141 9.58302 71.2619 9.84437 71.0234 10.092Z"
          fill="white"/>
    <path d="M76.9034 14.026H75.6241V6.87318H76.9034V14.026ZM76.2569 5.58016C76.0276 5.58016 75.8305 5.5068 75.6654 5.36008C75.5095 5.20418 75.4315 4.99785 75.4315 4.74108C75.4315 4.48431 75.5095 4.28256 75.6654 4.13584C75.8305 3.97994 76.0276 3.90199 76.2569 3.90199C76.4861 3.90199 76.6787 3.97994 76.8346 4.13584C76.9997 4.28256 77.0822 4.48431 77.0822 4.74108C77.0822 4.99785 76.9997 5.20418 76.8346 5.36008C76.6787 5.5068 76.4861 5.58016 76.2569 5.58016Z"
          fill="white"/>
    <path d="M79.1033 7.07951C79.3967 7.00615 79.7865 6.9282 80.2725 6.84567C80.7585 6.76314 81.3179 6.72187 81.9507 6.72187C82.5192 6.72187 82.9915 6.8044 83.3675 6.96947C83.7435 7.12537 84.0415 7.35004 84.2616 7.64349C84.4909 7.92777 84.6513 8.27166 84.743 8.67515C84.8347 9.07865 84.8806 9.52341 84.8806 10.0094V14.026H83.6013V10.2845C83.6013 9.84437 83.5692 9.46839 83.5051 9.15659C83.45 8.8448 83.3537 8.59262 83.2162 8.40004C83.0786 8.20747 82.8952 8.06991 82.666 7.98738C82.4367 7.89567 82.1524 7.84982 81.8131 7.84982C81.6756 7.84982 81.5334 7.85441 81.3867 7.86358C81.24 7.87275 81.0978 7.8865 80.9603 7.90484C80.8319 7.91401 80.7127 7.92777 80.6026 7.94611C80.5018 7.96445 80.4284 7.97821 80.3826 7.98738V14.026H79.1033V7.07951Z"
          fill="white"/>
    <path d="M88.6664 13.1044C89.1891 13.1044 89.5742 13.0356 89.8218 12.8981C90.0786 12.7605 90.207 12.5404 90.207 12.2378C90.207 11.926 90.0832 11.6784 89.8356 11.495C89.588 11.3116 89.1799 11.1053 88.6114 10.876C88.3362 10.766 88.0703 10.6559 87.8135 10.5459C87.5659 10.4267 87.3504 10.2891 87.167 10.1332C86.9836 9.97734 86.8369 9.78935 86.7269 9.56926C86.6168 9.34917 86.5618 9.07865 86.5618 8.75769C86.5618 8.12493 86.7956 7.62515 87.2633 7.25834C87.731 6.88235 88.3683 6.69436 89.1753 6.69436C89.3771 6.69436 89.5788 6.70812 89.7806 6.73563C89.9823 6.75397 90.1703 6.78148 90.3446 6.81816C90.5188 6.84567 90.6701 6.87777 90.7985 6.91445C90.936 6.95113 91.0415 6.98323 91.1149 7.01074L90.881 8.11118C90.7435 8.03781 90.5279 7.96445 90.2345 7.89109C89.941 7.80856 89.588 7.76729 89.1753 7.76729C88.8177 7.76729 88.5059 7.84065 88.24 7.98738C87.974 8.12493 87.841 8.34502 87.841 8.64764C87.841 8.80354 87.8686 8.94109 87.9236 9.06031C87.9878 9.17952 88.0795 9.28957 88.1987 9.39044C88.3271 9.48214 88.483 9.56926 88.6664 9.65179C88.8498 9.73433 89.0699 9.82144 89.3266 9.91315C89.6659 10.0415 89.9686 10.1699 90.2345 10.2983C90.5004 10.4175 90.7251 10.5597 90.9085 10.7247C91.1011 10.8898 91.2478 11.0915 91.3487 11.33C91.4496 11.5592 91.5 11.8435 91.5 12.1828C91.5 12.8431 91.2524 13.3429 90.7572 13.6822C90.2712 14.0215 89.5742 14.1911 88.6664 14.1911C88.0336 14.1911 87.5384 14.1361 87.1808 14.026C86.8231 13.9252 86.5801 13.8472 86.4517 13.7922L86.6856 12.6918C86.8323 12.7468 87.0662 12.8293 87.3871 12.9394C87.7081 13.0494 88.1345 13.1044 88.6664 13.1044Z"
          fill="white"/>
    <path d="M12.1714 13.7224L16.0552 6.99545L12.1714 0.268479L4.40374 0.268478L12.1714 13.7224Z" fill="white"/>
    <path d="M5.38318 4.2798L1.5 11.0057L5.38317 17.7315L13.1495 17.7315L5.38318 4.2798Z" fill="white"/>
</svg>

