<svg width="180" height="35" viewBox="0 0 180 35" fill="none" xmlns="http://www.w3.org/2000/svg">
    <path d="M50.5456 24.504C50.3723 24.088 50.1383 23.5593 49.8436 22.918C49.5663 22.2767 49.2629 21.5833 48.9336 20.838C48.6043 20.0927 48.2489 19.33 47.8676 18.55C47.5036 17.7527 47.1569 17.0073 46.8276 16.314C46.4983 15.6033 46.1863 14.9707 45.8916 14.416C45.6143 13.8613 45.3889 13.4367 45.2156 13.142C45.0249 15.1873 44.8689 17.406 44.7476 19.798C44.6263 22.1727 44.5223 24.5733 44.4356 27H41.9656C42.0349 25.44 42.1129 23.8713 42.1996 22.294C42.2863 20.6993 42.3816 19.1393 42.4856 17.614C42.6069 16.0713 42.7283 14.572 42.8496 13.116C42.9883 11.66 43.1356 10.282 43.2916 8.982H45.5016C45.9696 9.74467 46.4723 10.646 47.0096 11.686C47.5469 12.726 48.0843 13.818 48.6216 14.962C49.1589 16.0887 49.6789 17.224 50.1816 18.368C50.6843 19.4947 51.1436 20.526 51.5596 21.462C51.9756 20.526 52.4349 19.4947 52.9376 18.368C53.4403 17.224 53.9603 16.0887 54.4976 14.962C55.0349 13.818 55.5723 12.726 56.1096 11.686C56.6469 10.646 57.1496 9.74467 57.6176 8.982H59.8276C60.4169 14.7887 60.8589 20.7947 61.1536 27H58.6836C58.5969 24.5733 58.4929 22.1727 58.3716 19.798C58.2503 17.406 58.0943 15.1873 57.9036 13.142C57.7303 13.4367 57.4963 13.8613 57.2016 14.416C56.9243 14.9707 56.6209 15.6033 56.2916 16.314C55.9623 17.0073 55.6069 17.7527 55.2256 18.55C54.8616 19.33 54.5149 20.0927 54.1856 20.838C53.8563 21.5833 53.5443 22.2767 53.2496 22.918C52.9723 23.5593 52.7469 24.088 52.5736 24.504H50.5456Z"
          fill="white"/>
    <path d="M69.528 25.258C70.1 25.258 70.6027 25.2493 71.036 25.232C71.4867 25.1973 71.8594 25.1453 72.154 25.076V21.046C71.9807 20.9593 71.6947 20.89 71.296 20.838C70.9147 20.7687 70.4467 20.734 69.892 20.734C69.528 20.734 69.138 20.76 68.722 20.812C68.3234 20.864 67.9507 20.9767 67.604 21.15C67.2747 21.306 66.9974 21.5313 66.772 21.826C66.5467 22.1033 66.434 22.476 66.434 22.944C66.434 23.8107 66.7114 24.4173 67.266 24.764C67.8207 25.0933 68.5747 25.258 69.528 25.258ZM69.32 13.142C70.2907 13.142 71.1054 13.272 71.764 13.532C72.44 13.7747 72.9774 14.13 73.376 14.598C73.792 15.0487 74.0867 15.5947 74.26 16.236C74.4334 16.86 74.52 17.5533 74.52 18.316V26.766C74.312 26.8007 74.0174 26.8527 73.636 26.922C73.272 26.974 72.856 27.026 72.388 27.078C71.92 27.13 71.4087 27.1733 70.854 27.208C70.3167 27.26 69.7794 27.286 69.242 27.286C68.4794 27.286 67.7774 27.208 67.136 27.052C66.4947 26.896 65.94 26.6533 65.472 26.324C65.004 25.9773 64.64 25.5267 64.38 24.972C64.12 24.4173 63.99 23.75 63.99 22.97C63.99 22.2247 64.1374 21.5833 64.432 21.046C64.744 20.5087 65.16 20.0753 65.68 19.746C66.2 19.4167 66.8067 19.174 67.5 19.018C68.1934 18.862 68.9214 18.784 69.684 18.784C69.9267 18.784 70.178 18.8013 70.438 18.836C70.698 18.8533 70.9407 18.888 71.166 18.94C71.4087 18.9747 71.6167 19.0093 71.79 19.044C71.9634 19.0787 72.0847 19.1047 72.154 19.122V18.446C72.154 18.0473 72.1107 17.6573 72.024 17.276C71.9374 16.8773 71.7814 16.5307 71.556 16.236C71.3307 15.924 71.0187 15.6813 70.62 15.508C70.2387 15.3173 69.736 15.222 69.112 15.222C68.3147 15.222 67.6127 15.2827 67.006 15.404C66.4167 15.508 65.9747 15.6207 65.68 15.742L65.394 13.74C65.706 13.6013 66.226 13.4713 66.954 13.35C67.682 13.2113 68.4707 13.142 69.32 13.142Z"
          fill="white"/>
    <path d="M78.536 13.87C79.0907 13.7313 79.8274 13.584 80.746 13.428C81.6647 13.272 82.722 13.194 83.918 13.194C84.9927 13.194 85.8854 13.35 86.596 13.662C87.3067 13.9567 87.87 14.3813 88.286 14.936C88.7194 15.4733 89.0227 16.1233 89.196 16.886C89.3694 17.6487 89.456 18.4893 89.456 19.408V27H87.038V19.928C87.038 19.096 86.9774 18.3853 86.856 17.796C86.752 17.2067 86.57 16.73 86.31 16.366C86.05 16.002 85.7034 15.742 85.27 15.586C84.8367 15.4127 84.2994 15.326 83.658 15.326C83.398 15.326 83.1294 15.3347 82.852 15.352C82.5747 15.3693 82.306 15.3953 82.046 15.43C81.8034 15.4473 81.578 15.4733 81.37 15.508C81.1794 15.5427 81.0407 15.5687 80.954 15.586V27H78.536V13.87Z"
          fill="white"/>
    <path d="M91.4227 29.522C91.6133 29.6087 91.856 29.6867 92.1507 29.756C92.4627 29.8427 92.766 29.886 93.0607 29.886C94.014 29.886 94.7594 29.6693 95.2967 29.236C95.834 28.82 96.3194 28.1353 96.7527 27.182C95.6607 25.102 94.638 22.9007 93.6847 20.578C92.7487 18.238 91.9687 15.872 91.3447 13.48H93.9447C94.1353 14.26 94.3607 15.1007 94.6207 16.002C94.898 16.9033 95.2014 17.8307 95.5307 18.784C95.86 19.7373 96.2153 20.6907 96.5967 21.644C96.978 22.5973 97.3767 23.516 97.7927 24.4C98.4514 22.58 99.0233 20.7773 99.5087 18.992C99.994 17.2067 100.453 15.3693 100.887 13.48H103.383C102.759 16.028 102.065 18.4807 101.303 20.838C100.54 23.178 99.7167 25.3707 98.8327 27.416C98.486 28.196 98.122 28.8633 97.7407 29.418C97.3767 29.99 96.9694 30.458 96.5187 30.822C96.068 31.186 95.5567 31.4547 94.9847 31.628C94.43 31.8013 93.7974 31.888 93.0867 31.888C92.896 31.888 92.6967 31.8707 92.4887 31.836C92.2807 31.8187 92.0727 31.784 91.8647 31.732C91.674 31.6973 91.492 31.654 91.3187 31.602C91.1627 31.55 91.05 31.5067 90.9807 31.472L91.4227 29.522Z"
          fill="white"/>
    <path d="M108.793 25.596C108.793 26.064 108.637 26.4713 108.325 26.818C108.013 27.1647 107.588 27.338 107.051 27.338C106.513 27.338 106.089 27.1647 105.777 26.818C105.465 26.4713 105.309 26.064 105.309 25.596C105.309 25.128 105.465 24.7207 105.777 24.374C106.089 24.0273 106.513 23.854 107.051 23.854C107.588 23.854 108.013 24.0273 108.325 24.374C108.637 24.7207 108.793 25.128 108.793 25.596Z"
          fill="white"/>
    <path d="M117.028 25.206C119.663 25.206 120.98 24.3047 120.98 22.502C120.98 21.9473 120.859 21.4793 120.616 21.098C120.391 20.6993 120.079 20.3613 119.68 20.084C119.282 19.7893 118.822 19.538 118.302 19.33C117.8 19.122 117.262 18.914 116.69 18.706C116.032 18.4807 115.408 18.2293 114.818 17.952C114.229 17.6573 113.718 17.3193 113.284 16.938C112.851 16.5393 112.504 16.0713 112.244 15.534C112.002 14.9967 111.88 14.3467 111.88 13.584C111.88 12.0067 112.418 10.776 113.492 9.892C114.567 9.008 116.049 8.566 117.938 8.566C119.03 8.566 120.018 8.68734 120.902 8.93C121.804 9.15534 122.462 9.40667 122.878 9.684L122.072 11.738C121.708 11.5127 121.162 11.296 120.434 11.088C119.724 10.8627 118.892 10.75 117.938 10.75C117.453 10.75 117.002 10.802 116.586 10.906C116.17 11.01 115.806 11.166 115.494 11.374C115.182 11.582 114.931 11.8507 114.74 12.18C114.567 12.492 114.48 12.8647 114.48 13.298C114.48 13.7833 114.576 14.1907 114.766 14.52C114.957 14.8493 115.226 15.144 115.572 15.404C115.919 15.6467 116.318 15.872 116.768 16.08C117.236 16.288 117.748 16.496 118.302 16.704C119.082 17.016 119.793 17.328 120.434 17.64C121.093 17.952 121.656 18.3247 122.124 18.758C122.61 19.1913 122.982 19.7113 123.242 20.318C123.502 20.9073 123.632 21.6267 123.632 22.476C123.632 24.0533 123.052 25.2667 121.89 26.116C120.746 26.9653 119.126 27.39 117.028 27.39C116.318 27.39 115.659 27.338 115.052 27.234C114.463 27.1473 113.934 27.0433 113.466 26.922C112.998 26.7833 112.591 26.6447 112.244 26.506C111.915 26.35 111.655 26.22 111.464 26.116L112.218 24.036C112.617 24.2613 113.224 24.5127 114.038 24.79C114.853 25.0673 115.85 25.206 117.028 25.206Z"
          fill="white"/>
    <path d="M131.412 19.564C131.932 19.9627 132.478 20.4567 133.05 21.046C133.64 21.6353 134.212 22.2767 134.766 22.97C135.338 23.646 135.876 24.3393 136.378 25.05C136.881 25.7433 137.306 26.3933 137.652 27H134.818C134.454 26.3933 134.03 25.778 133.544 25.154C133.076 24.5127 132.582 23.906 132.062 23.334C131.542 22.7447 131.014 22.2073 130.476 21.722C129.939 21.2367 129.428 20.8293 128.942 20.5V27H126.524V7.24L128.942 6.824V19.148C129.358 18.732 129.818 18.2727 130.32 17.77C130.823 17.2673 131.317 16.756 131.802 16.236C132.288 15.716 132.747 15.222 133.18 14.754C133.614 14.2687 133.986 13.844 134.298 13.48H137.132C136.734 13.9133 136.3 14.39 135.832 14.91C135.364 15.43 134.879 15.9587 134.376 16.496C133.874 17.016 133.362 17.5447 132.842 18.082C132.34 18.602 131.863 19.096 131.412 19.564Z"
          fill="white"/>
    <path d="M142.526 27H140.108V13.48H142.526V27ZM141.304 11.036C140.871 11.036 140.498 10.8973 140.186 10.62C139.892 10.3253 139.744 9.93534 139.744 9.45C139.744 8.96467 139.892 8.58334 140.186 8.306C140.498 8.01134 140.871 7.864 141.304 7.864C141.738 7.864 142.102 8.01134 142.396 8.306C142.708 8.58334 142.864 8.96467 142.864 9.45C142.864 9.93534 142.708 10.3253 142.396 10.62C142.102 10.8973 141.738 11.036 141.304 11.036Z"
          fill="white"/>
    <path d="M146.684 13.87C147.239 13.7313 147.976 13.584 148.894 13.428C149.813 13.272 150.87 13.194 152.066 13.194C153.141 13.194 154.034 13.35 154.744 13.662C155.455 13.9567 156.018 14.3813 156.434 14.936C156.868 15.4733 157.171 16.1233 157.344 16.886C157.518 17.6487 157.604 18.4893 157.604 19.408V27H155.186V19.928C155.186 19.096 155.126 18.3853 155.004 17.796C154.9 17.2067 154.718 16.73 154.458 16.366C154.198 16.002 153.852 15.742 153.418 15.586C152.985 15.4127 152.448 15.326 151.806 15.326C151.546 15.326 151.278 15.3347 151 15.352C150.723 15.3693 150.454 15.3953 150.194 15.43C149.952 15.4473 149.726 15.4733 149.518 15.508C149.328 15.5427 149.189 15.5687 149.102 15.586V27H146.684V13.87Z"
          fill="white"/>
    <path d="M164.76 25.258C165.748 25.258 166.476 25.128 166.944 24.868C167.429 24.608 167.672 24.192 167.672 23.62C167.672 23.0307 167.438 22.5627 166.97 22.216C166.502 21.8693 165.731 21.4793 164.656 21.046C164.136 20.838 163.633 20.63 163.148 20.422C162.68 20.1967 162.273 19.9367 161.926 19.642C161.579 19.3473 161.302 18.992 161.094 18.576C160.886 18.16 160.782 17.6487 160.782 17.042C160.782 15.846 161.224 14.9013 162.108 14.208C162.992 13.4973 164.197 13.142 165.722 13.142C166.103 13.142 166.485 13.168 166.866 13.22C167.247 13.2547 167.603 13.3067 167.932 13.376C168.261 13.428 168.547 13.4887 168.79 13.558C169.05 13.6273 169.249 13.688 169.388 13.74L168.946 15.82C168.686 15.6813 168.279 15.5427 167.724 15.404C167.169 15.248 166.502 15.17 165.722 15.17C165.046 15.17 164.457 15.3087 163.954 15.586C163.451 15.846 163.2 16.262 163.2 16.834C163.2 17.1287 163.252 17.3887 163.356 17.614C163.477 17.8393 163.651 18.0473 163.876 18.238C164.119 18.4113 164.413 18.576 164.76 18.732C165.107 18.888 165.523 19.0527 166.008 19.226C166.649 19.4687 167.221 19.7113 167.724 19.954C168.227 20.1793 168.651 20.448 168.998 20.76C169.362 21.072 169.639 21.4533 169.83 21.904C170.021 22.3373 170.116 22.8747 170.116 23.516C170.116 24.764 169.648 25.7087 168.712 26.35C167.793 26.9913 166.476 27.312 164.76 27.312C163.564 27.312 162.628 27.208 161.952 27C161.276 26.8093 160.817 26.662 160.574 26.558L161.016 24.478C161.293 24.582 161.735 24.738 162.342 24.946C162.949 25.154 163.755 25.258 164.76 25.258Z"
          fill="white"/>
    <path d="M20.1729 26.4261L27.5139 13.7111L20.1729 0.996102L5.49087 0.996101L20.1729 26.4261Z" fill="white"/>
    <path d="M7.34215 8.57811L0.00235748 21.291L7.34215 34.0039L22.0217 34.0039L7.34215 8.57811Z" fill="white"/>
</svg>
