<svg width="88" height="34" viewBox="0 0 88 34" fill="none" xmlns="http://www.w3.org/2000/svg">
<path d="M67.0149 11.0319H62.306C61.9841 11.0319 61.71 11.2701 61.6599 11.5934L59.7556 23.8722C59.7182 24.1146 59.9021 24.3339 60.1433 24.3339H62.5595C62.7847 24.3339 62.9768 24.1671 63.0117 23.9407L63.5518 20.4595C63.602 20.136 63.876 19.898 64.1981 19.898H65.6882C68.7896 19.898 70.5795 18.3715 71.0474 15.3459C71.258 14.0228 71.0559 12.9831 70.4466 12.2552C69.777 11.455 68.59 11.0319 67.0149 11.0319ZM67.5581 15.5164C67.3008 17.2353 66.0101 17.2353 64.7613 17.2353H64.051L64.5492 14.026C64.5795 13.8321 64.7439 13.6892 64.9369 13.6892H65.2626C66.1125 13.6892 66.9154 13.6892 67.3291 14.1816C67.577 14.4762 67.6519 14.9129 67.5581 15.5164Z" fill="white"/>
<path d="M33.4306 11.0319H28.7219C28.4 11.0319 28.1259 11.2701 28.0756 11.5934L26.1713 23.8722C26.1339 24.1146 26.318 24.3339 26.5593 24.3339H28.8076C29.1295 24.3339 29.4035 24.0956 29.4539 23.7722L29.9677 20.4595C30.0179 20.136 30.2919 19.898 30.6138 19.898H32.1039C35.2055 19.898 36.9955 18.3715 37.4634 15.3459C37.6739 14.0228 37.4718 12.9831 36.8628 12.2552C36.1925 11.455 35.0057 11.0319 33.4306 11.0319ZM33.9738 15.5164C33.7165 17.2353 32.4256 17.2353 31.1772 17.2353H30.4667L30.9649 14.026C30.9952 13.8321 31.1594 13.6892 31.3526 13.6892H31.6783C32.5282 13.6892 33.3311 13.6892 33.7449 14.1816C33.9925 14.4762 34.0674 14.9129 33.9738 15.5164Z" fill="white"/>
<path d="M47.5046 15.4615H45.2501C45.0569 15.4615 44.8924 15.6044 44.8622 15.7986L44.7631 16.4397L44.6055 16.2075C44.117 15.4865 43.0289 15.2459 41.9421 15.2459C39.4513 15.2459 37.3232 17.1656 36.909 19.8582C36.6934 21.2014 36.9994 22.4849 37.7483 23.3809C38.4363 24.2041 39.4183 24.5467 40.5882 24.5467C42.5959 24.5467 43.7097 23.2348 43.7097 23.2348L43.6089 23.8722C43.571 24.1146 43.7552 24.3341 43.9966 24.3341H46.0272C46.3491 24.3341 46.6229 24.0958 46.6733 23.7726L47.8923 15.9229C47.9297 15.6804 47.7456 15.4615 47.5046 15.4615ZM44.3623 19.9247C44.1445 21.235 43.1217 22.1143 41.8173 22.1143C41.1634 22.1143 40.6398 21.9004 40.3033 21.4956C39.9698 21.094 39.8443 20.5219 39.9501 19.8849C40.153 18.5865 41.1923 17.6785 42.4769 17.6785C43.1171 17.6785 43.6371 17.8946 43.9801 18.3033C44.3253 18.715 44.4611 19.2907 44.3623 19.9247Z" fill="white"/>
<path d="M81.0889 15.4615H78.8345C78.6413 15.4615 78.4768 15.6044 78.4468 15.7986L78.3475 16.4397L78.1899 16.2075C77.7014 15.4865 76.6132 15.2459 75.5265 15.2459C73.0355 15.2459 70.9075 17.1656 70.4936 19.8582C70.278 21.2014 70.584 22.4849 71.3329 23.3809C72.0209 24.2041 73.0029 24.5467 74.1727 24.5467C76.1805 24.5467 77.2942 23.2348 77.2942 23.2348L77.1935 23.8722C77.1556 24.1146 77.3397 24.3341 77.5812 24.3341H79.6118C79.9337 24.3341 80.2075 24.0958 80.2579 23.7726L81.4768 15.9229C81.5145 15.6804 81.3302 15.4615 81.0889 15.4615ZM77.9467 19.9247C77.7289 21.235 76.7063 22.1143 75.4019 22.1143C74.7477 22.1143 74.2244 21.9004 73.8877 21.4956C73.5544 21.094 73.4287 20.5219 73.5345 19.8849C73.7376 18.5865 74.7765 17.6785 76.0611 17.6785C76.7013 17.6785 77.2212 17.8946 77.5645 18.3033C77.9097 18.715 78.0455 19.2907 77.9467 19.9247Z" fill="white"/>
<path d="M59.5135 15.4614H57.2472C57.0305 15.4614 56.8277 15.5707 56.7058 15.753L53.5797 20.4355L52.2547 15.9362C52.1717 15.6544 51.9169 15.4614 51.628 15.4614H49.4002C49.1312 15.4614 48.9421 15.7304 49.0286 15.9895L51.5241 23.4387L49.177 26.8066C48.9926 27.0711 49.1787 27.4365 49.4974 27.4365H51.7614C51.9759 27.4365 52.1768 27.3296 52.2991 27.1503L59.836 16.0881C60.0163 15.8234 59.8301 15.4614 59.5135 15.4614Z" fill="white"/>
<path d="M83.7464 11.3691L81.8136 23.8726C81.7761 24.1149 81.9603 24.334 82.2013 24.334H84.1451C84.467 24.334 84.741 24.0958 84.7914 23.7725L86.6969 11.4937C86.7346 11.2514 86.5505 11.0323 86.3092 11.0323H84.1343C83.9409 11.0318 83.7764 11.175 83.7464 11.3691Z" fill="white"/>
<path d="M16.9441 11.5836C17.1976 9.93977 16.9424 8.8215 16.0682 7.80825C15.1057 6.69299 13.367 6.21521 11.1423 6.21521H4.68453C4.22996 6.21521 3.84268 6.5516 3.77178 7.0085L1.08285 24.349C1.02994 24.6912 1.29003 25.0005 1.63033 25.0005H5.61696L5.34185 26.775C5.2955 27.0743 5.52279 27.3449 5.82076 27.3449H9.18098C9.57863 27.3449 9.91723 27.0507 9.97924 26.651L10.0122 26.4771L10.6452 22.3949L10.6861 22.1693C10.7481 21.7699 11.0867 21.4752 11.4843 21.4752H11.9869C15.2424 21.4752 17.7915 20.1303 18.5362 16.2405C18.8475 14.6152 18.6864 13.2584 17.8634 12.3046C17.615 12.0166 17.3054 11.7779 16.9441 11.5836Z" fill="white"/>
<path d="M16.9339 11.6753C17.1875 10.0314 16.9323 8.91317 16.058 7.89992C15.0955 6.78466 13.3568 6.30688 11.1322 6.30688H4.67437C4.2198 6.30688 3.83252 6.64326 3.76162 7.10017L1.07269 24.4407C1.01978 24.7829 1.27987 25.0922 1.62017 25.0922H5.6068L6.60822 18.6341L6.57711 18.8366C6.64801 18.38 7.03169 18.0434 7.48648 18.0434H9.38139C13.1026 18.0434 16.0165 16.5058 16.8677 12.0594C16.8931 11.9282 16.9147 11.8005 16.9339 11.6753Z" fill="white"/>
<path d="M7.68413 11.697C7.72667 11.4224 7.90021 11.1972 8.13363 11.0836C8.23966 11.032 8.35838 11.0031 8.4826 11.0031H13.5445C14.1443 11.0031 14.7034 11.0431 15.2145 11.1269C15.3605 11.1508 15.5027 11.1783 15.6409 11.2095C15.7789 11.2407 15.913 11.2754 16.0428 11.3141C16.1077 11.3333 16.1714 11.3537 16.2343 11.3748C16.4853 11.4596 16.7189 11.5593 16.9339 11.6753C17.1875 10.0314 16.9323 8.91317 16.058 7.89992C15.0955 6.78466 13.3568 6.30688 11.1322 6.30688H4.67437C4.2198 6.30688 3.83252 6.64326 3.76162 7.10017L1.07269 24.4407C1.01978 24.7829 1.27987 25.0922 1.62017 25.0922H5.6068L6.60822 18.6341L7.68413 11.697Z" fill="white"/>
</svg>
