<svg width="16" height="16" viewBox="0 0 16 16" fill="none" xmlns="http://www.w3.org/2000/svg">
    <path d="M5.46852 7.91435L7.35532 9.42379L10.8934 4.55887L12.1066 5.44113L7.64468 11.5762L4.53148 9.08565L5.46852 7.91435Z"
          fill="#B3C8FF"/>
    <path fill-rule="evenodd" clip-rule="evenodd"
          d="M0 2C0 0.895431 0.895431 0 2 0H14C15.1046 0 16 0.895431 16 2V14C16 15.1046 15.1046 16 14 16H2C0.895431 16 0 15.1046 0 14V2ZM2 1.5H14C14.2761 1.5 14.5 1.72386 14.5 2V14C14.5 14.2761 14.2761 14.5 14 14.5H2C1.72386 14.5 1.5 14.2761 1.5 14V2C1.5 1.72386 1.72386 1.5 2 1.5Z"
          fill="#B3C8FF"/>
</svg>
