<svg width="48" height="24" viewBox="0 0 48 24" fill="none" xmlns="http://www.w3.org/2000/svg">
<path d="M37.9068 5.54827L41.821 4.85168V19.8697H37.9068V5.54827ZM43.6205 5.54827V19.8614H47.5346V4.85168L43.6205 5.54827ZM32.3424 19.8614H36.2566V8.88192H32.3424V19.8614ZM6.47755 10.4327C5.97999 10.3995 4.8356 10.3249 4.8356 9.29656C4.8356 8.05266 6.48585 8.05266 7.0995 8.05266C8.18585 8.05266 9.5956 8.37607 10.599 8.67461C10.599 8.67461 11.1629 8.87363 11.6356 9.07266L11.6771 9.08095V5.68095L11.619 5.66436C10.4332 5.24973 9.05658 4.85168 6.49414 4.85168C2.08243 4.85168 0.523407 7.42241 0.523407 9.61997C0.523407 10.8888 1.07072 13.8741 6.12097 14.2224C6.55219 14.2473 7.68829 14.3136 7.68829 15.3834C7.68829 16.2624 6.7595 16.7849 5.19219 16.7849C3.4756 16.7849 1.81707 16.3453 0.805358 15.9307V19.4385C2.31463 19.8366 4.02292 20.0356 6.02146 20.0356C10.3337 20.0356 12.2658 17.6058 12.2658 15.1927C12.2658 12.4561 10.1097 10.6814 6.47755 10.4327ZM30.1366 8.72436C26.521 8.84046 24.6883 10.4658 24.6883 13.6917V19.8697H28.6356V14.8278C28.6356 12.8956 28.8844 12.0663 31.1815 11.9917V8.77412C30.7834 8.69949 30.1366 8.72436 30.1366 8.72436ZM19.5219 8.87363C19.439 9.08924 18.8088 10.8639 17.2912 12.6966V4.85168L13.2527 5.64778V19.8614H17.2912V15.4663C18.4605 17.2244 19.041 19.8614 19.041 19.8614H23.8756C23.3946 17.8712 21.3049 14.2058 21.3049 14.2058C23.179 11.8258 24.0083 9.28827 24.141 8.86534H19.5219V8.87363ZM34.2912 7.82875C35.3527 7.82875 36.2234 6.96631 36.2234 5.90485C36.2234 4.84339 35.361 3.97266 34.2912 3.97266C33.2298 3.97266 32.3673 4.8351 32.3673 5.90485C32.3673 6.96631 33.2298 7.82875 34.2912 7.82875Z" fill="#DE5AB5"/>
</svg>
