<svg width="93" height="34" viewBox="0 0 93 34" fill="none" xmlns="http://www.w3.org/2000/svg">
<path d="M16.4656 32C24.7498 32 31.4656 25.2843 31.4656 17C31.4656 8.71573 24.7498 2 16.4656 2C8.1813 2 1.46557 8.71573 1.46557 17C1.46557 25.2843 8.1813 32 16.4656 32Z" fill="white" fill-opacity="0.28"/>
<path d="M18.065 18.3798C17.9613 18.3871 17.426 18.4184 16.2346 18.4184C15.2821 18.4184 14.6141 18.3919 14.3777 18.3798V18.3822C10.7145 18.2207 7.98223 17.584 7.98223 16.8195C7.98223 16.0575 10.717 15.4184 14.3777 15.2568V17.748C14.6165 17.7649 15.3038 17.8059 16.2515 17.8059C17.3898 17.8059 17.9589 17.7576 18.065 17.748V15.2592C21.721 15.4232 24.4461 16.0599 24.4461 16.8219C24.4461 17.584 21.7186 18.2207 18.065 18.3846V18.3798ZM18.065 15.0012V12.7729H23.1655V9.375H9.27966V12.7729H14.3801V15.0012C10.2346 15.1917 7.11889 16.0117 7.11889 16.9956C7.11889 17.9795 10.2371 18.7994 14.3801 18.9924V26.1354H18.0674V18.9924C22.2057 18.8018 25.3166 17.9819 25.3166 16.998C25.3166 16.0165 22.2057 15.1941 18.0674 15.0036" fill="white"/>
<path d="M42.0733 6.7162V9.35833H44.6412V11.3408H42.0557V15.3606C42.0557 16.2484 42.5455 16.6816 43.2635 16.6816C43.6225 16.6816 44.0381 16.5685 44.3777 16.3987L45.0196 18.3617C44.36 18.6252 43.8118 18.7384 43.1132 18.7578C41.0936 18.8339 39.7725 17.6826 39.7725 15.3606V11.3408H38.0359V9.35833H39.7725V6.96202L42.0733 6.7162ZM86.3439 9.23453L86.5137 10.3098C87.2317 9.15849 88.1938 8.98871 89.1381 8.98871C90.1002 8.98871 91.0251 9.3654 91.5344 9.87472L90.4963 11.8749C90.0241 11.4787 89.5909 11.2701 88.8357 11.2701C87.6278 11.2701 86.5137 11.912 86.5137 13.6292V18.5368H84.2111V9.231L86.3439 9.23453ZM80.7007 12.8016C80.5504 11.5937 79.606 10.9889 78.2849 10.9889C77.0399 10.9889 76.0195 11.5937 75.6799 12.8016H80.7007ZM75.6428 14.708C75.7931 15.8593 76.7941 16.6905 78.4175 16.6905C79.2664 16.6905 80.3806 16.3686 80.9094 15.8222L82.3807 17.2759C81.3992 18.2945 79.7952 18.7861 78.3786 18.7861C75.1706 18.7861 73.2624 16.8037 73.2624 13.822C73.2624 10.9906 75.1883 8.95157 78.2089 8.95157C81.3232 8.95157 83.2685 10.8775 82.9095 14.708H75.6428ZM65.4881 5.32617V10.4972C66.3193 9.42199 67.338 9.10013 68.3955 9.10013C71.0377 9.10013 72.2084 10.8934 72.2084 13.631V18.5386H69.9058V13.6504C69.9058 11.9509 69.018 11.2347 67.7907 11.2347C66.4307 11.2347 65.4881 12.386 65.4881 13.7831V18.5403H63.1856V5.32794L65.4881 5.32617ZM59.3727 6.6101V9.25222H61.9405V11.2347H59.355V15.2545C59.355 16.1422 59.8466 16.5755 60.5629 16.5755C60.9219 16.5755 61.3375 16.4623 61.677 16.2926L62.319 18.2556C61.6594 18.5191 61.1111 18.6323 60.4126 18.6517C58.393 18.7278 57.0719 17.5747 57.0719 15.2545V11.2347H55.3352V9.25222H57.0719V6.85592L59.3727 6.6101ZM53.0114 12.8016C52.8611 11.5937 51.9167 10.9889 50.5957 10.9889C49.3507 10.9889 48.3303 11.5937 47.9907 12.8016H53.0114ZM47.9536 14.708C48.1039 15.8593 49.1049 16.6905 50.7283 16.6905C51.5772 16.6905 52.6913 16.3686 53.2201 15.8222L54.6915 17.2759C53.71 18.2945 52.106 18.7861 50.6894 18.7861C47.4796 18.7861 45.5732 16.8037 45.5732 13.822C45.5732 10.9906 47.4991 8.95157 50.5179 8.95157C53.6322 8.95157 55.5758 10.8775 55.2185 14.708H47.9536Z" fill="white"/>
<path d="M41.7483 22.9766V29.375H40.654V22.9766H41.7483ZM43.7566 22.9766V23.8555H38.6633V22.9766H43.7566Z" fill="white"/>
<path d="M44.8703 22.9766H47.1335C47.6198 22.9766 48.0344 23.0498 48.3772 23.1963C48.7199 23.3428 48.9822 23.5596 49.1638 23.8467C49.3484 24.1309 49.4406 24.4824 49.4406 24.9014C49.4406 25.2207 49.3821 25.502 49.2649 25.7451C49.1477 25.9883 48.9822 26.1934 48.7683 26.3604C48.5544 26.5244 48.2995 26.6519 48.0036 26.7427L47.6697 26.9053H45.635L45.6262 26.0308H47.1511C47.4148 26.0308 47.6345 25.9839 47.8103 25.8901C47.9861 25.7964 48.1179 25.6689 48.2058 25.5078C48.2966 25.3438 48.342 25.1592 48.342 24.9541C48.342 24.7314 48.2981 24.5381 48.2102 24.374C48.1252 24.207 47.9934 24.0796 47.8147 23.9917C47.636 23.9009 47.4089 23.8555 47.1335 23.8555H45.9734V29.375H44.8703V22.9766ZM48.5222 29.375L47.0193 26.501L48.175 26.4966L49.6999 29.3179V29.375H48.5222Z" fill="white"/>
<path d="M54.5886 27.292H55.6872C55.6521 27.7109 55.5349 28.0845 55.3356 28.4126C55.1364 28.7378 54.8566 28.9941 54.4963 29.1816C54.1359 29.3691 53.698 29.4629 53.1823 29.4629C52.7868 29.4629 52.4309 29.3926 52.1145 29.252C51.798 29.1084 51.5271 28.9062 51.3015 28.6455C51.0759 28.3818 50.903 28.064 50.7829 27.6919C50.6657 27.3198 50.6071 26.9038 50.6071 26.4438V25.9121C50.6071 25.4521 50.6672 25.0361 50.7873 24.6641C50.9104 24.292 51.0861 23.9741 51.3147 23.7104C51.5432 23.4438 51.8171 23.2402 52.1364 23.0996C52.4587 22.959 52.8205 22.8887 53.2219 22.8887C53.7316 22.8887 54.1623 22.9824 54.5139 23.1699C54.8654 23.3574 55.1379 23.6167 55.3313 23.9478C55.5275 24.2788 55.6477 24.6582 55.6916 25.0859H54.593C54.5637 24.8105 54.4992 24.5747 54.3996 24.3784C54.3029 24.1821 54.1594 24.0327 53.9689 23.9302C53.7785 23.8247 53.5295 23.772 53.2219 23.772C52.9699 23.772 52.7502 23.8188 52.5627 23.9126C52.3752 24.0063 52.2185 24.144 52.0925 24.3257C51.9665 24.5073 51.8713 24.7314 51.8068 24.998C51.7453 25.2617 51.7146 25.5635 51.7146 25.9033V26.4438C51.7146 26.7661 51.7424 27.0591 51.798 27.3228C51.8566 27.5835 51.9445 27.8076 52.0617 27.9951C52.1818 28.1826 52.3342 28.3276 52.5188 28.4302C52.7033 28.5327 52.9245 28.584 53.1823 28.584C53.4958 28.584 53.7492 28.5342 53.9426 28.4346C54.1389 28.335 54.2868 28.1899 54.3864 27.9995C54.489 27.8062 54.5564 27.5703 54.5886 27.292Z" fill="white"/>
<path d="M58.985 26.2197V27.0635H56.6603V26.2197H58.985Z" fill="white"/>
<path d="M64.4098 28.5312V29.375H60.1208V28.6499L62.2038 26.3779C62.4323 26.1201 62.6125 25.8975 62.7443 25.71C62.8761 25.5225 62.9684 25.354 63.0212 25.2046C63.0768 25.0522 63.1047 24.9043 63.1047 24.7607C63.1047 24.5586 63.0666 24.3813 62.9904 24.229C62.9172 24.0737 62.8088 23.9521 62.6652 23.8643C62.5216 23.7734 62.3473 23.728 62.1423 23.728C61.9049 23.728 61.7057 23.7793 61.5446 23.8818C61.3835 23.9844 61.2619 24.1265 61.1798 24.3081C61.0978 24.4868 61.0568 24.6919 61.0568 24.9233H59.9977C59.9977 24.5513 60.0827 24.2114 60.2526 23.9038C60.4225 23.5933 60.6686 23.3472 60.9909 23.1655C61.3131 22.981 61.7013 22.8887 62.1554 22.8887C62.5832 22.8887 62.9464 22.9604 63.2453 23.104C63.5441 23.2476 63.7712 23.4512 63.9264 23.7148C64.0846 23.9785 64.1637 24.2905 64.1637 24.6509C64.1637 24.8501 64.1315 25.0479 64.0671 25.2441C64.0026 25.4404 63.9103 25.6367 63.7902 25.833C63.673 26.0264 63.5339 26.2212 63.3727 26.4175C63.2116 26.6108 63.0343 26.8071 62.841 27.0063L61.4567 28.5312H64.4098Z" fill="white"/>
<path d="M69.6764 25.6396V26.6855C69.6764 27.1865 69.6266 27.6143 69.527 27.9688C69.4303 28.3203 69.2897 28.606 69.1051 28.8257C68.9205 29.0454 68.6994 29.2065 68.4415 29.3091C68.1867 29.4116 67.901 29.4629 67.5846 29.4629C67.3327 29.4629 67.0983 29.4307 66.8815 29.3662C66.6676 29.3018 66.4743 29.2007 66.3014 29.063C66.1286 28.9253 65.9806 28.748 65.8576 28.5312C65.7374 28.3115 65.6437 28.0493 65.5763 27.7446C65.5119 27.4399 65.4796 27.0869 65.4796 26.6855V25.6396C65.4796 25.1357 65.5294 24.7109 65.629 24.3652C65.7287 24.0166 65.8707 23.7339 66.0553 23.5171C66.2399 23.2974 66.4596 23.1377 66.7145 23.0381C66.9723 22.9385 67.2594 22.8887 67.5758 22.8887C67.8307 22.8887 68.0651 22.9209 68.2789 22.9854C68.4957 23.0469 68.6891 23.145 68.859 23.2798C69.0319 23.4146 69.1784 23.5903 69.2985 23.8071C69.4215 24.021 69.5153 24.2803 69.5797 24.585C69.6442 24.8867 69.6764 25.2383 69.6764 25.6396ZM68.6173 26.835V25.4814C68.6173 25.2266 68.6027 25.0024 68.5734 24.8091C68.5441 24.6128 68.5001 24.4473 68.4415 24.3125C68.3859 24.1748 68.3156 24.0635 68.2306 23.9785C68.1456 23.8906 68.049 23.8276 67.9406 23.7896C67.8322 23.7485 67.7106 23.728 67.5758 23.728C67.4118 23.728 67.2653 23.7603 67.1364 23.8247C67.0075 23.8862 66.8991 23.9858 66.8112 24.1235C66.7233 24.2612 66.6559 24.4429 66.609 24.6685C66.5651 24.8911 66.5431 25.1621 66.5431 25.4814V26.835C66.5431 27.0928 66.5578 27.3198 66.5871 27.5161C66.6163 27.7124 66.6603 27.8809 66.7189 28.0215C66.7775 28.1592 66.8478 28.2734 66.9298 28.3643C67.0148 28.4521 67.1115 28.5166 67.2199 28.5576C67.3312 28.5986 67.4528 28.6191 67.5846 28.6191C67.7516 28.6191 67.8996 28.5869 68.0285 28.5225C68.1574 28.458 68.2658 28.3555 68.3537 28.2148C68.4415 28.0713 68.5075 27.8853 68.5514 27.6567C68.5954 27.4282 68.6173 27.1543 68.6173 26.835Z" fill="white"/>
</svg>
